<?xml version="1.0" standalone="no"?>
 <!DOCTYPE svg PUBLIC "-//W3C//DTD SVG 1.1//EN" 
 "http://www.w3.org/Graphics/SVG/1.1/DTD/svg11.dtd"> 
<svg
  xmlns:svg="http://www.w3.org/2000/svg"
  xmlns="http://www.w3.org/2000/svg"
  xmlns:xlink="http://www.w3.org/1999/xlink"
  version="1.1"
  width="6.327140cm" height="4.607560cm" viewBox="0 0 24910 18140">
<title>SVG Picture created as poly_555-brd.svg date 2021/02/03 14:23:46 </title>
  <desc>Picture generated by PCBNEW </desc>
<g style="fill:#000000; fill-opacity:1;stroke:#000000; stroke-opacity:1;
stroke-linecap:round; stroke-linejoin:round;"
 transform="translate(0 0) scale(1 1)">
</g>
<g style="fill:#000000; fill-opacity:0.0; 
stroke:#000000; stroke-width:-0.000393701; stroke-opacity:1; 
stroke-linecap:round; stroke-linejoin:round;">
<g >
</g>
<g style="fill:#000000; fill-opacity:1.0; 
stroke:#000000; stroke-width:0; stroke-opacity:1; 
stroke-linecap:round; stroke-linejoin:round;">
<circle cx="1785.43" cy="15159.8" r="374.331" /> 
</g>
<g style="fill:#000000; fill-opacity:1.0; 
stroke:#000000; stroke-width:98.4252; stroke-opacity:1; 
stroke-linecap:round; stroke-linejoin:round;">
</g>
<g style="fill:#000000; fill-opacity:1.0; 
stroke:#000000; stroke-width:0; stroke-opacity:1; 
stroke-linecap:round; stroke-linejoin:round;">
<circle cx="2769.69" cy="15159.8" r="374.331" /> 
</g>
<g style="fill:#000000; fill-opacity:1.0; 
stroke:#000000; stroke-width:98.4252; stroke-opacity:1; 
stroke-linecap:round; stroke-linejoin:round;">
</g>
<g style="fill:#000000; fill-opacity:1.0; 
stroke:#000000; stroke-width:0; stroke-opacity:1; 
stroke-linecap:round; stroke-linejoin:round;">
<circle cx="3753.94" cy="15159.8" r="374.331" /> 
</g>
<g style="fill:#000000; fill-opacity:1.0; 
stroke:#000000; stroke-width:98.4252; stroke-opacity:1; 
stroke-linecap:round; stroke-linejoin:round;">
</g>
<g style="fill:#000000; fill-opacity:1.0; 
stroke:#000000; stroke-width:0; stroke-opacity:1; 
stroke-linecap:round; stroke-linejoin:round;">
<circle cx="1037.4" cy="12403.9" r="807.402" /> 
</g>
<g style="fill:#000000; fill-opacity:1.0; 
stroke:#000000; stroke-width:98.4252; stroke-opacity:1; 
stroke-linecap:round; stroke-linejoin:round;">
</g>
<g style="fill:#000000; fill-opacity:1.0; 
stroke:#000000; stroke-width:0; stroke-opacity:1; 
stroke-linecap:round; stroke-linejoin:round;">
<circle cx="4501.97" cy="12403.9" r="807.402" /> 
</g>
<g style="fill:#000000; fill-opacity:1.0; 
stroke:#000000; stroke-width:98.4252; stroke-opacity:1; 
stroke-linecap:round; stroke-linejoin:round;">
</g>
<g >
</g>
<g style="fill:#000000; fill-opacity:1.0; 
stroke:#000000; stroke-width:98.4252; stroke-opacity:1; 
stroke-linecap:round; stroke-linejoin:round;">
</g>
<g style="fill:#000000; fill-opacity:1.0; 
stroke:#000000; stroke-width:0; stroke-opacity:1; 
stroke-linecap:round; stroke-linejoin:round;">
<circle cx="21165.7" cy="15159.8" r="374.331" /> 
</g>
<g style="fill:#000000; fill-opacity:1.0; 
stroke:#000000; stroke-width:98.4252; stroke-opacity:1; 
stroke-linecap:round; stroke-linejoin:round;">
</g>
<g style="fill:#000000; fill-opacity:1.0; 
stroke:#000000; stroke-width:0; stroke-opacity:1; 
stroke-linecap:round; stroke-linejoin:round;">
<circle cx="22150" cy="15159.8" r="374.331" /> 
</g>
<g style="fill:#000000; fill-opacity:1.0; 
stroke:#000000; stroke-width:98.4252; stroke-opacity:1; 
stroke-linecap:round; stroke-linejoin:round;">
</g>
<g style="fill:#000000; fill-opacity:1.0; 
stroke:#000000; stroke-width:0; stroke-opacity:1; 
stroke-linecap:round; stroke-linejoin:round;">
<circle cx="23134.3" cy="15159.8" r="374.331" /> 
</g>
<g style="fill:#000000; fill-opacity:1.0; 
stroke:#000000; stroke-width:98.4252; stroke-opacity:1; 
stroke-linecap:round; stroke-linejoin:round;">
</g>
<g style="fill:#000000; fill-opacity:1.0; 
stroke:#000000; stroke-width:0; stroke-opacity:1; 
stroke-linecap:round; stroke-linejoin:round;">
<circle cx="20417.7" cy="12403.9" r="807.402" /> 
</g>
<g style="fill:#000000; fill-opacity:1.0; 
stroke:#000000; stroke-width:98.4252; stroke-opacity:1; 
stroke-linecap:round; stroke-linejoin:round;">
</g>
<g style="fill:#000000; fill-opacity:1.0; 
stroke:#000000; stroke-width:0; stroke-opacity:1; 
stroke-linecap:round; stroke-linejoin:round;">
<circle cx="23882.3" cy="12403.9" r="807.402" /> 
</g>
<g style="fill:#000000; fill-opacity:1.0; 
stroke:#000000; stroke-width:98.4252; stroke-opacity:1; 
stroke-linecap:round; stroke-linejoin:round;">
</g>
<g >
</g>
<g style="fill:#000000; fill-opacity:1.0; 
stroke:#000000; stroke-width:98.4252; stroke-opacity:1; 
stroke-linecap:round; stroke-linejoin:round;">
</g>
<g style="fill:#000000; fill-opacity:1.0; 
stroke:#000000; stroke-width:0; stroke-opacity:1; 
stroke-linecap:round; stroke-linejoin:round;">
<circle cx="9509.84" cy="16609.8" r="610.551" /> 
</g>
<g style="fill:#000000; fill-opacity:1.0; 
stroke:#000000; stroke-width:98.4252; stroke-opacity:1; 
stroke-linecap:round; stroke-linejoin:round;">
</g>
<g >
</g>
<g style="fill:#000000; fill-opacity:1.0; 
stroke:#000000; stroke-width:98.4252; stroke-opacity:1; 
stroke-linecap:round; stroke-linejoin:round;">
</g>
<g style="fill:#000000; fill-opacity:1.0; 
stroke:#000000; stroke-width:0; stroke-opacity:1; 
stroke-linecap:round; stroke-linejoin:round;">
<circle cx="15416.5" cy="5909.84" r="512.126" /> 
</g>
<g style="fill:#000000; fill-opacity:1.0; 
stroke:#000000; stroke-width:98.4252; stroke-opacity:1; 
stroke-linecap:round; stroke-linejoin:round;">
</g>
<g style="fill:#000000; fill-opacity:1.0; 
stroke:#000000; stroke-width:0; stroke-opacity:1; 
stroke-linecap:round; stroke-linejoin:round;">
<path style="fill:#000000; fill-opacity:1.0; 
stroke:#000000; stroke-width:0; stroke-opacity:1; 
stroke-linecap:round; stroke-linejoin:round;fill-rule:evenodd;"
d="M 8998.9,6421.97
8998.9,5397.72
10023.1,5397.72
10023.1,6421.97
Z" /> 
</g>
<g >
</g>
<g style="fill:#000000; fill-opacity:1.0; 
stroke:#000000; stroke-width:0; stroke-opacity:1; 
stroke-linecap:round; stroke-linejoin:round;">
<path style="fill:#000000; fill-opacity:1.0; 
stroke:#000000; stroke-width:0; stroke-opacity:1; 
stroke-linecap:round; stroke-linejoin:round;fill-rule:evenodd;"
d="M 20366.1,7103.62
20366.1,7616.06
19853.6,7616.06
19853.6,7103.62
Z" /> 
<circle cx="19322.4" cy="7359.84" r="256.22" /> 
</g>
<g style="fill:#000000; fill-opacity:1.0; 
stroke:#000000; stroke-width:98.4252; stroke-opacity:1; 
stroke-linecap:round; stroke-linejoin:round;">
</g>
<g >
</g>
<g style="fill:#000000; fill-opacity:1.0; 
stroke:#000000; stroke-width:98.4252; stroke-opacity:1; 
stroke-linecap:round; stroke-linejoin:round;">
</g>
<g style="fill:#000000; fill-opacity:1.0; 
stroke:#000000; stroke-width:669.921; stroke-opacity:1; 
stroke-linecap:round; stroke-linejoin:round;">
</g>
<g style="fill:#000000; fill-opacity:0.0; 
stroke:#000000; stroke-width:669.921; stroke-opacity:1; 
stroke-linecap:round; stroke-linejoin:round;">
<path d="M12409 13817
L12409 13502
" />
<path d="M18409 16817
L18409 16502
" />
<path d="M13409 13817
L13409 13502
" />
<path d="M17409 16817
L17409 16502
" />
<path d="M14409 13817
L14409 13502
" />
<path d="M16409 16817
L16409 16502
" />
<path d="M15409 13817
L15409 13502
" />
<path d="M15409 16817
L15409 16502
" />
<path d="M16409 13817
L16409 13502
" />
<path d="M14409 16817
L14409 16502
" />
<path d="M17409 13817
L17409 13502
" />
<path d="M13409 16817
L13409 16502
" />
<path d="M18409 13817
L18409 13502
" />
</g>
<g style="fill:#000000; fill-opacity:0.0; 
stroke:#000000; stroke-width:0; stroke-opacity:1; 
stroke-linecap:round; stroke-linejoin:round;">
</g>
<g style="fill:#000000; fill-opacity:1.0; 
stroke:#000000; stroke-width:0; stroke-opacity:1; 
stroke-linecap:round; stroke-linejoin:round;">
<path style="fill:#000000; fill-opacity:1.0; 
stroke:#000000; stroke-width:0; stroke-opacity:1; 
stroke-linecap:round; stroke-linejoin:round;fill-rule:evenodd;"
d="M 12744.8,17152.3
12074.9,17152.3
12074.9,16167.4
12744.8,16167.4
Z" /> 
</g>
<g >
</g>
<g style="fill:#000000; fill-opacity:1.0; 
stroke:#000000; stroke-width:0; stroke-opacity:1; 
stroke-linecap:round; stroke-linejoin:round;">
<path style="fill:#000000; fill-opacity:1.0; 
stroke:#000000; stroke-width:0; stroke-opacity:1; 
stroke-linecap:round; stroke-linejoin:round;fill-rule:evenodd;"
d="M 897.717,4194.57
1921.97,4194.57
1921.97,4825.12
897.717,4825.12
Z" /> 
</g>
<g style="fill:#000000; fill-opacity:1.0; 
stroke:#000000; stroke-width:630.551; stroke-opacity:1; 
stroke-linecap:round; stroke-linejoin:round;">
</g>
<g style="fill:#000000; fill-opacity:0.0; 
stroke:#000000; stroke-width:630.551; stroke-opacity:1; 
stroke-linecap:round; stroke-linejoin:round;">
<path d="M1606 5297
L1212 5297
" />
<path d="M1606 6084
L1212 6084
" />
</g>
<g style="fill:#000000; fill-opacity:0.0; 
stroke:#000000; stroke-width:906.142; stroke-opacity:1; 
stroke-linecap:round; stroke-linejoin:round;">
<path d="M1665 3683
L1153 3683
" />
<path d="M1665 6911
L1153 6911
" />
</g>
<g >
</g>
<g style="fill:#000000; fill-opacity:0.0; 
stroke:#000000; stroke-width:906.142; stroke-opacity:1; 
stroke-linecap:round; stroke-linejoin:round;">
</g>
<g style="fill:#000000; fill-opacity:1.0; 
stroke:#000000; stroke-width:0; stroke-opacity:1; 
stroke-linecap:round; stroke-linejoin:round;">
<circle cx="21641.3" cy="5959.84" r="338.898" /> 
</g>
<g style="fill:#000000; fill-opacity:1.0; 
stroke:#000000; stroke-width:98.4252; stroke-opacity:1; 
stroke-linecap:round; stroke-linejoin:round;">
</g>
<g style="fill:#000000; fill-opacity:1.0; 
stroke:#000000; stroke-width:0; stroke-opacity:1; 
stroke-linecap:round; stroke-linejoin:round;">
<circle cx="22625.6" cy="3991.34" r="338.898" /> 
</g>
<g style="fill:#000000; fill-opacity:1.0; 
stroke:#000000; stroke-width:98.4252; stroke-opacity:1; 
stroke-linecap:round; stroke-linejoin:round;">
</g>
<g style="fill:#000000; fill-opacity:1.0; 
stroke:#000000; stroke-width:0; stroke-opacity:1; 
stroke-linecap:round; stroke-linejoin:round;">
<circle cx="23609.8" cy="5959.84" r="338.898" /> 
</g>
<g style="fill:#000000; fill-opacity:1.0; 
stroke:#000000; stroke-width:98.4252; stroke-opacity:1; 
stroke-linecap:round; stroke-linejoin:round;">
</g>
<g >
</g>
<g style="fill:#000000; fill-opacity:1.0; 
stroke:#000000; stroke-width:98.4252; stroke-opacity:1; 
stroke-linecap:round; stroke-linejoin:round;">
</g>
<g style="fill:#000000; fill-opacity:1.0; 
stroke:#000000; stroke-width:0; stroke-opacity:1; 
stroke-linecap:round; stroke-linejoin:round;">
<circle cx="4409.84" cy="2109.84" r="374.331" /> 
</g>
<g style="fill:#000000; fill-opacity:1.0; 
stroke:#000000; stroke-width:98.4252; stroke-opacity:1; 
stroke-linecap:round; stroke-linejoin:round;">
</g>
<g style="fill:#000000; fill-opacity:1.0; 
stroke:#000000; stroke-width:0; stroke-opacity:1; 
stroke-linecap:round; stroke-linejoin:round;">
<path style="fill:#000000; fill-opacity:1.0; 
stroke:#000000; stroke-width:0; stroke-opacity:1; 
stroke-linecap:round; stroke-linejoin:round;fill-rule:evenodd;"
d="M 5784.17,1735.51
5784.17,2484.17
5035.51,2484.17
5035.51,1735.51
Z" /> 
</g>
<g >
</g>
<g style="fill:#000000; fill-opacity:1.0; 
stroke:#000000; stroke-width:0; stroke-opacity:1; 
stroke-linecap:round; stroke-linejoin:round;">
<circle cx="21841.3" cy="8359.84" r="334.961" /> 
</g>
<g style="fill:#000000; fill-opacity:1.0; 
stroke:#000000; stroke-width:98.4252; stroke-opacity:1; 
stroke-linecap:round; stroke-linejoin:round;">
</g>
<g style="fill:#000000; fill-opacity:1.0; 
stroke:#000000; stroke-width:0; stroke-opacity:1; 
stroke-linecap:round; stroke-linejoin:round;">
<circle cx="23809.8" cy="8359.84" r="334.961" /> 
</g>
<g style="fill:#000000; fill-opacity:1.0; 
stroke:#000000; stroke-width:98.4252; stroke-opacity:1; 
stroke-linecap:round; stroke-linejoin:round;">
</g>
<g >
</g>
<g style="fill:#000000; fill-opacity:1.0; 
stroke:#000000; stroke-width:98.4252; stroke-opacity:1; 
stroke-linecap:round; stroke-linejoin:round;">
</g>
<g style="fill:#000000; fill-opacity:1.0; 
stroke:#000000; stroke-width:0; stroke-opacity:1; 
stroke-linecap:round; stroke-linejoin:round;">
<circle cx="6709.84" cy="14259.8" r="334.961" /> 
</g>
<g style="fill:#000000; fill-opacity:1.0; 
stroke:#000000; stroke-width:98.4252; stroke-opacity:1; 
stroke-linecap:round; stroke-linejoin:round;">
</g>
<g style="fill:#000000; fill-opacity:1.0; 
stroke:#000000; stroke-width:0; stroke-opacity:1; 
stroke-linecap:round; stroke-linejoin:round;">
<circle cx="6709.84" cy="16228.3" r="334.961" /> 
</g>
<g style="fill:#000000; fill-opacity:1.0; 
stroke:#000000; stroke-width:98.4252; stroke-opacity:1; 
stroke-linecap:round; stroke-linejoin:round;">
</g>
<g >
</g>
<g style="fill:#000000; fill-opacity:1.0; 
stroke:#000000; stroke-width:98.4252; stroke-opacity:1; 
stroke-linecap:round; stroke-linejoin:round;">
</g>
<g style="fill:#000000; fill-opacity:1.0; 
stroke:#000000; stroke-width:0; stroke-opacity:1; 
stroke-linecap:round; stroke-linejoin:round;">
<path style="fill:#000000; fill-opacity:1.0; 
stroke:#000000; stroke-width:0; stroke-opacity:1; 
stroke-linecap:round; stroke-linejoin:round;fill-rule:evenodd;"
d="M 9364.49,15514.5
8655.2,15514.5
8655.2,14805.2
9364.49,14805.2
Z" /> 
</g>
<g style="fill:#000000; fill-opacity:1.0; 
stroke:#000000; stroke-width:709.291; stroke-opacity:1; 
stroke-linecap:round; stroke-linejoin:round;">
</g>
<g style="fill:#000000; fill-opacity:0.0; 
stroke:#000000; stroke-width:709.291; stroke-opacity:1; 
stroke-linecap:round; stroke-linejoin:round;">
<path d="M10009 15159
L10009 15159
" />
</g>
<g >
</g>
<g style="fill:#000000; fill-opacity:0.0; 
stroke:#000000; stroke-width:709.291; stroke-opacity:1; 
stroke-linecap:round; stroke-linejoin:round;">
</g>
<g style="fill:#000000; fill-opacity:1.0; 
stroke:#000000; stroke-width:0; stroke-opacity:1; 
stroke-linecap:round; stroke-linejoin:round;">
<circle cx="1509.84" cy="1459.84" r="610.551" /> 
</g>
<g style="fill:#000000; fill-opacity:1.0; 
stroke:#000000; stroke-width:98.4252; stroke-opacity:1; 
stroke-linecap:round; stroke-linejoin:round;">
</g>
<g >
</g>
<g style="fill:#000000; fill-opacity:1.0; 
stroke:#000000; stroke-width:98.4252; stroke-opacity:1; 
stroke-linecap:round; stroke-linejoin:round;">
</g>
<g style="fill:#000000; fill-opacity:1.0; 
stroke:#000000; stroke-width:0; stroke-opacity:1; 
stroke-linecap:round; stroke-linejoin:round;">
<circle cx="1509.84" cy="16559.8" r="610.551" /> 
</g>
<g style="fill:#000000; fill-opacity:1.0; 
stroke:#000000; stroke-width:98.4252; stroke-opacity:1; 
stroke-linecap:round; stroke-linejoin:round;">
</g>
<g >
</g>
<g style="fill:#000000; fill-opacity:1.0; 
stroke:#000000; stroke-width:98.4252; stroke-opacity:1; 
stroke-linecap:round; stroke-linejoin:round;">
</g>
<g style="fill:#000000; fill-opacity:1.0; 
stroke:#000000; stroke-width:0; stroke-opacity:1; 
stroke-linecap:round; stroke-linejoin:round;">
<circle cx="23409.8" cy="1459.84" r="610.551" /> 
</g>
<g style="fill:#000000; fill-opacity:1.0; 
stroke:#000000; stroke-width:98.4252; stroke-opacity:1; 
stroke-linecap:round; stroke-linejoin:round;">
</g>
<g >
</g>
<g style="fill:#000000; fill-opacity:1.0; 
stroke:#000000; stroke-width:98.4252; stroke-opacity:1; 
stroke-linecap:round; stroke-linejoin:round;">
</g>
<g style="fill:#000000; fill-opacity:1.0; 
stroke:#000000; stroke-width:0; stroke-opacity:1; 
stroke-linecap:round; stroke-linejoin:round;">
<circle cx="23409.8" cy="16559.8" r="610.551" /> 
</g>
<g style="fill:#000000; fill-opacity:1.0; 
stroke:#000000; stroke-width:98.4252; stroke-opacity:1; 
stroke-linecap:round; stroke-linejoin:round;">
</g>
<g >
</g>
<g style="fill:#000000; fill-opacity:1.0; 
stroke:#000000; stroke-width:98.4252; stroke-opacity:1; 
stroke-linecap:round; stroke-linejoin:round;">
</g>
<g style="fill:#000000; fill-opacity:1.0; 
stroke:#000000; stroke-width:0; stroke-opacity:1; 
stroke-linecap:round; stroke-linejoin:round;">
<circle cx="4309.84" cy="8559.84" r="334.961" /> 
</g>
<g style="fill:#000000; fill-opacity:1.0; 
stroke:#000000; stroke-width:98.4252; stroke-opacity:1; 
stroke-linecap:round; stroke-linejoin:round;">
</g>
<g style="fill:#000000; fill-opacity:1.0; 
stroke:#000000; stroke-width:669.921; stroke-opacity:1; 
stroke-linecap:round; stroke-linejoin:round;">
</g>
<g style="fill:#000000; fill-opacity:0.0; 
stroke:#000000; stroke-width:669.921; stroke-opacity:1; 
stroke-linecap:round; stroke-linejoin:round;">
<path d="M4309 4559
L4309 4559
" />
</g>
<g >
</g>
<g style="fill:#000000; fill-opacity:0.0; 
stroke:#000000; stroke-width:669.921; stroke-opacity:1; 
stroke-linecap:round; stroke-linejoin:round;">
</g>
<g style="fill:#000000; fill-opacity:1.0; 
stroke:#000000; stroke-width:0; stroke-opacity:1; 
stroke-linecap:round; stroke-linejoin:round;">
<circle cx="6509.84" cy="12759.8" r="334.961" /> 
</g>
<g style="fill:#000000; fill-opacity:1.0; 
stroke:#000000; stroke-width:98.4252; stroke-opacity:1; 
stroke-linecap:round; stroke-linejoin:round;">
</g>
<g style="fill:#000000; fill-opacity:1.0; 
stroke:#000000; stroke-width:669.921; stroke-opacity:1; 
stroke-linecap:round; stroke-linejoin:round;">
</g>
<g style="fill:#000000; fill-opacity:0.0; 
stroke:#000000; stroke-width:669.921; stroke-opacity:1; 
stroke-linecap:round; stroke-linejoin:round;">
<path d="M10509 12759
L10509 12759
" />
</g>
<g >
</g>
<g >
</g>
<g >
</g>
</g>
<g style="fill:#000000; fill-opacity:0.0; 
stroke:#000000; stroke-width:669.921; stroke-opacity:1; 
stroke-linecap:round; stroke-linejoin:round;">
</g>
<g style="fill:#000000; fill-opacity:0.0; 
stroke:#000000; stroke-width:73.8189; stroke-opacity:1; 
stroke-linecap:round; stroke-linejoin:round;">
<text x="19809.8" y="3467.32"
textLength="1456.6" font-size="419.947" lengthAdjust="spacingAndGlyphs"
text-anchor="start" opacity="0">REV A</text>
<path d="M20112 3452
L20007 3302
" />
<path d="M19932 3452
L19932 3137
L20052 3137
L20082 3152
L20097 3167
L20112 3197
L20112 3242
L20097 3272
L20082 3287
L20052 3302
L19932 3302
" />
<path d="M20247 3287
L20352 3287
" />
<path d="M20397 3452
L20247 3452
L20247 3137
L20397 3137
" />
<path d="M20487 3137
L20592 3452
L20697 3137
" />
<path d="M21027 3362
L21177 3362
" />
<path d="M20997 3452
L21102 3137
L21207 3452
" />
</g>
<g style="fill:#000000; fill-opacity:0.0; 
stroke:#000000; stroke-width:59.0551; stroke-opacity:1; 
stroke-linecap:round; stroke-linejoin:round;">
<text x="9509.84" y="16156.7"
textLength="2570.66" font-size="524.934" lengthAdjust="spacingAndGlyphs"
text-anchor="middle" opacity="0">+     -</text>
<path d="M8366 15987
L8666 15987
" />
<path d="M8516 16137
L8516 15837
" />
<path d="M10353 15987
L10653 15987
" />
</g>
<g style="fill:#000000; fill-opacity:0.0; 
stroke:#000000; stroke-width:98.4252; stroke-opacity:1; 
stroke-linecap:round; stroke-linejoin:round;">
<text x="21409.8" y="1612.99"
textLength="4351.24" font-size="787.402" lengthAdjust="spacingAndGlyphs"
text-anchor="end" opacity="0">OSKITONE</text>
<path d="M17324 994
L17436 994
L17493 1022
L17549 1078
L17577 1191
L17577 1388
L17549 1500
L17493 1556
L17436 1584
L17324 1584
L17268 1556
L17212 1500
L17183 1388
L17183 1191
L17212 1078
L17268 1022
L17324 994
" />
<path d="M17802 1556
L17886 1584
L18027 1584
L18083 1556
L18111 1528
L18140 1472
L18140 1416
L18111 1359
L18083 1331
L18027 1303
L17915 1275
L17858 1247
L17830 1219
L17802 1163
L17802 1106
L17830 1050
L17858 1022
L17915 994
L18055 994
L18140 1022
" />
<path d="M18393 1584
L18393 994
" />
<path d="M18730 1584
L18477 1247
" />
<path d="M18730 994
L18393 1331
" />
<path d="M18983 1584
L18983 994
" />
<path d="M19180 994
L19517 994
" />
<path d="M19349 1584
L19349 994
" />
<path d="M19827 994
L19939 994
L19996 1022
L20052 1078
L20080 1191
L20080 1388
L20052 1500
L19996 1556
L19939 1584
L19827 1584
L19771 1556
L19714 1500
L19686 1388
L19686 1191
L19714 1078
L19771 1022
L19827 994
" />
<path d="M20333 1584
L20333 994
L20670 1584
L20670 994
" />
<path d="M20952 1275
L21149 1275
" />
<path d="M21233 1584
L20952 1584
L20952 994
L21233 994
" />
<text x="21409.8" y="2597.24"
textLength="2827.62" font-size="787.402" lengthAdjust="spacingAndGlyphs"
text-anchor="end" opacity="0">APC_0</text>
<path d="M18758 2400
L19039 2400
" />
<path d="M18702 2569
L18899 1978
L19096 2569
" />
<path d="M19292 2569
L19292 1978
L19517 1978
L19574 2006
L19602 2034
L19630 2091
L19630 2175
L19602 2231
L19574 2259
L19517 2287
L19292 2287
" />
<path d="M20221 2512
L20192 2541
L20108 2569
L20052 2569
L19967 2541
L19911 2484
L19883 2428
L19855 2316
L19855 2231
L19883 2119
L19911 2062
L19967 2006
L20052 1978
L20108 1978
L20192 2006
L20221 2034
" />
<path d="M20333 2625
L20783 2625
" />
<path d="M21036 1978
L21092 1978
L21149 2006
L21177 2034
L21205 2091
L21233 2203
L21233 2344
L21205 2456
L21177 2512
L21149 2541
L21092 2569
L21036 2569
L20980 2541
L20952 2512
L20924 2456
L20895 2344
L20895 2203
L20924 2091
L20952 2034
L20980 2006
L21036 1978
" />
</g>
<g style="fill:#000000; fill-opacity:0.0; 
stroke:#000000; stroke-width:47.2441; stroke-opacity:1; 
stroke-linecap:round; stroke-linejoin:round;">
<path d="M812 14813
L812 13291
" />
<path d="M812 11516
L812 9994
" />
<path d="M4726 14813
L4726 13291
" />
<path d="M4726 11516
L4726 9994
" />
<path d="M812 14813
L1442 14813
" />
<path d="M2128 14813
L2427 14813
" />
<path d="M3112 14813
L3411 14813
" />
<path d="M4096 14813
L4726 14813
" />
<path d="M812 9994
L4726 9994
" />
<path d="M20193 14813
L20193 13291
" />
<path d="M20193 11516
L20193 9994
" />
<path d="M24106 14813
L24106 13291
" />
<path d="M24106 11516
L24106 9994
" />
<path d="M20193 14813
L20822 14813
" />
<path d="M21508 14813
L21807 14813
" />
<path d="M22492 14813
L22791 14813
" />
<path d="M23476 14813
L24106 14813
" />
<path d="M20193 9994
L24106 9994
" />
<circle cx="12459.8" cy="5909.84" r="5905.51" /> 
<circle cx="19716.1" cy="7359.84" r="834.646" /> 
<path d="M19716 8178
L19716 6540
" />
<path d="M19700 8178
L19700 6540
" />
<path d="M19684 8178
L19684 6541
" />
<path d="M19668 8177
L19668 6542
" />
<path d="M19653 8176
L19653 6543
" />
<path d="M19637 8175
L19637 7690
" />
<path d="M19637 7029
L19637 6544
" />
<path d="M19621 8173
L19621 7690
" />
<path d="M19621 7029
L19621 6546
" />
<path d="M19605 8171
L19605 7690
" />
<path d="M19605 7029
L19605 6548
" />
<path d="M19590 8169
L19590 7690
" />
<path d="M19590 7029
L19590 6550
" />
<path d="M19574 8166
L19574 7690
" />
<path d="M19574 7029
L19574 6552
" />
<path d="M19558 8163
L19558 7690
" />
<path d="M19558 7029
L19558 6555
" />
<path d="M19542 8160
L19542 7690
" />
<path d="M19542 7029
L19542 6559
" />
<path d="M19527 8157
L19527 7690
" />
<path d="M19527 7029
L19527 6562
" />
<path d="M19511 8153
L19511 7690
" />
<path d="M19511 7029
L19511 6566
" />
<path d="M19495 8149
L19495 7690
" />
<path d="M19495 7029
L19495 6570
" />
<path d="M19479 8144
L19479 7690
" />
<path d="M19479 7029
L19479 6574
" />
<path d="M19464 8140
L19464 7690
" />
<path d="M19464 7029
L19464 6579
" />
<path d="M19448 8134
L19448 7690
" />
<path d="M19448 7029
L19448 6585
" />
<path d="M19432 8129
L19432 7690
" />
<path d="M19432 7029
L19432 6590
" />
<path d="M19416 8123
L19416 7690
" />
<path d="M19416 7029
L19416 6596
" />
<path d="M19400 8117
L19400 7690
" />
<path d="M19400 7029
L19400 6602
" />
<path d="M19385 8110
L19385 7690
" />
<path d="M19385 7029
L19385 6609
" />
<path d="M19369 8103
L19369 7690
" />
<path d="M19369 7029
L19369 6616
" />
<path d="M19353 8096
L19353 7690
" />
<path d="M19353 7029
L19353 6623
" />
<path d="M19337 8088
L19337 7690
" />
<path d="M19337 7029
L19337 6631
" />
<path d="M19322 8080
L19322 7690
" />
<path d="M19322 7029
L19322 6639
" />
<path d="M19306 8071
L19306 7690
" />
<path d="M19306 7029
L19306 6648
" />
<path d="M19290 8062
L19290 7690
" />
<path d="M19290 7029
L19290 6657
" />
<path d="M19274 8052
L19274 7690
" />
<path d="M19274 7029
L19274 6666
" />
<path d="M19259 8042
L19259 7690
" />
<path d="M19259 7029
L19259 6676
" />
<path d="M19243 8032
L19243 7690
" />
<path d="M19243 7029
L19243 6687
" />
<path d="M19227 8021
L19227 7690
" />
<path d="M19227 7029
L19227 6698
" />
<path d="M19211 8009
L19211 7690
" />
<path d="M19211 7029
L19211 6710
" />
<path d="M19196 7997
L19196 7690
" />
<path d="M19196 7029
L19196 6722
" />
<path d="M19180 7984
L19180 7690
" />
<path d="M19180 7029
L19180 6735
" />
<path d="M19164 7970
L19164 7690
" />
<path d="M19164 7029
L19164 6748
" />
<path d="M19148 7956
L19148 7690
" />
<path d="M19148 7029
L19148 6762
" />
<path d="M19133 7941
L19133 7690
" />
<path d="M19133 7029
L19133 6777
" />
<path d="M19117 7925
L19117 7690
" />
<path d="M19117 7029
L19117 6793
" />
<path d="M19101 7909
L19101 7690
" />
<path d="M19101 7029
L19101 6810
" />
<path d="M19085 7891
L19085 7690
" />
<path d="M19085 7029
L19085 6827
" />
<path d="M19070 7873
L19070 7690
" />
<path d="M19070 7029
L19070 6846
" />
<path d="M19054 7853
L19054 7690
" />
<path d="M19054 7029
L19054 6866
" />
<path d="M19038 7832
L19038 7690
" />
<path d="M19038 7029
L19038 6887
" />
<path d="M19022 7809
L19022 7690
" />
<path d="M19022 7029
L19022 6910
" />
<path d="M19007 7785
L19007 7690
" />
<path d="M19007 7029
L19007 6934
" />
<path d="M18991 7758
L18991 6961
" />
<path d="M18975 7729
L18975 6989
" />
<path d="M18959 7698
L18959 7021
" />
<path d="M18944 7662
L18944 7057
" />
<path d="M18928 7621
L18928 7098
" />
<path d="M18912 7571
L18912 7148
" />
<path d="M18896 7505
L18896 7214
" />
<path d="M20609 7830
L20452 7830
" />
<path d="M20531 7909
L20531 7751
" />
<path d="M11886 14274
L11886 14766
" />
<path d="M18933 14274
L11886 14274
" />
<path d="M18933 16045
L18933 14274
" />
<path d="M11886 16045
L18933 16045
" />
<path d="M11886 15553
L11886 16045
" />
<path d="M11886.2 15553.5 A393.701 393.701 0.0 0 0 11886.2 14766.1" />
<path d="M2575 4706
L2575 4312
" />
<path d="M2378 4509
L2575 4706
" />
<path d="M2575 4312
L2378 4509
" />
<path d="M520 7033
L642 7033
" />
<path d="M520 3561
L642 3561
" />
<path d="M2177 3561
L2299 3561
" />
<path d="M520 7033
L520 3561
" />
<path d="M2299 7033
L2177 7033
" />
<path d="M2299 3561
L2299 7033
" />
<path d="M23913 4975.59 A1287.4 1287.4 0.0 0 0 23044.7 3758.33" />
<path d="M22206.7 3758.27 A1287.38 1287.38 0.0 0 0 21478.4 5559.83" />
<path d="M22041.3 6122.84 A1287.45 1287.45 0.0 0 0 23210.3 6122.59" />
<path d="M23772.8 5560.24 A1287.63 1287.63 0.0 0 0 23913 4953.2" />
<circle cx="4909.84" cy="2109.84" r="984.252" /> 
<path d="M5917 2718
L5917 1501
" />
<path d="M5917.72 1501.64 A1177.17 1177.17 0.0 0 0 3732.68 2110.02" />
<path d="M3732.68 2109.66 A1177.17 1177.17 0.0 0 0 5917.72 2718.04" />
<path d="M23857 8899
L21794 8899
" />
<path d="M23857 7820
L21794 7820
" />
<path d="M23857 8899
L23857 8775
" />
<path d="M23857 7944
L23857 7820
" />
<path d="M21794 8899
L21794 8775
" />
<path d="M21794 7944
L21794 7820
" />
<path d="M6294 16275
L6170 16275
" />
<path d="M7249 16275
L7125 16275
" />
<path d="M6294 14212
L6170 14212
" />
<path d="M7249 14212
L7125 14212
" />
<path d="M6170 14212
L6170 16275
" />
<path d="M7249 14212
L7249 16275
" />
<path d="M8486 15683
L8486 15159
" />
<path d="M9009 15683
L8486 15683
" />
<path d="M9509 15683
L9509 14636
" />
<path d="M9509 14636
L10533 14636
" />
<path d="M9509 15683
L10533 15683
" />
<path d="M10533 15683
L10533 14636
" />
<path d="M3770 7847
L4849 7847
" />
<path d="M4849 7847
L4849 5272
" />
<path d="M4849 5272
L3770 5272
" />
<path d="M3770 5272
L3770 7847
" />
<path d="M4309 8150
L4309 7847
" />
<path d="M4309 4969
L4309 5272
" />
<path d="M7222 12220
L7222 13299
" />
<path d="M7222 13299
L9797 13299
" />
<path d="M9797 13299
L9797 12220
" />
<path d="M9797 12220
L7222 12220
" />
<path d="M6919 12759
L7222 12759
" />
<path d="M10100 12759
L9797 12759
" />
</g>
<g style="fill:#000000; fill-opacity:0.0; 
stroke:#000000; stroke-width:59.0551; stroke-opacity:1; 
stroke-linecap:round; stroke-linejoin:round;">
<g transform="rotate(-90 5453.94 10359.8)">
<text x="5453.94" y="10556.7"
textLength="1983.97" font-size="524.934" lengthAdjust="spacingAndGlyphs"
text-anchor="middle" opacity="0">RV101</text>
</g>
<path d="M5632 10969
L5444 11100
" />
<path d="M5632 11194
L5238 11194
L5238 11044
L5257 11006
L5275 10987
L5313 10969
L5369 10969
L5407 10987
L5425 11006
L5444 11044
L5444 11194
" />
<path d="M5238 10856
L5632 10725
L5238 10594
" />
<path d="M5632 10256
L5632 10481
" />
<path d="M5632 10369
L5238 10369
L5294 10406
L5332 10444
L5350 10481
" />
<path d="M5238 10013
L5238 9975
L5257 9938
L5275 9919
L5313 9900
L5388 9881
L5482 9881
L5557 9900
L5594 9919
L5613 9938
L5632 9975
L5632 10013
L5613 10050
L5594 10069
L5557 10088
L5482 10106
L5388 10106
L5313 10088
L5275 10069
L5257 10050
L5238 10013
" />
<path d="M5632 9506
L5632 9731
" />
<path d="M5632 9619
L5238 9619
L5294 9656
L5332 9694
L5350 9731
" />
<g transform="rotate(-90 19634.3 10359.8)">
<text x="19634.3" y="10556.7"
textLength="1932.79" font-size="524.934" lengthAdjust="spacingAndGlyphs"
text-anchor="middle" opacity="0">RV102</text>
</g>
<path d="M19812 10969
L19624 11100
" />
<path d="M19812 11194
L19418 11194
L19418 11044
L19437 11006
L19456 10987
L19493 10969
L19549 10969
L19587 10987
L19606 11006
L19624 11044
L19624 11194
" />
<path d="M19418 10856
L19812 10725
L19418 10594
" />
<path d="M19812 10256
L19812 10481
" />
<path d="M19812 10369
L19418 10369
L19474 10406
L19512 10444
L19531 10481
" />
<path d="M19418 10013
L19418 9975
L19437 9938
L19456 9919
L19493 9900
L19568 9881
L19662 9881
L19737 9900
L19774 9919
L19793 9938
L19812 9975
L19812 10013
L19793 10050
L19774 10069
L19737 10088
L19662 10106
L19568 10106
L19493 10088
L19456 10069
L19437 10050
L19418 10013
" />
<path d="M19456 9731
L19437 9713
L19418 9675
L19418 9581
L19437 9544
L19456 9525
L19493 9506
L19531 9506
L19587 9525
L19812 9750
L19812 9506
" />
<text x="17409.8" y="11056.7"
textLength="1895.29" font-size="524.934" lengthAdjust="spacingAndGlyphs"
text-anchor="middle" opacity="0">LS101</text>
<path d="M16781 11037
L16594 11037
L16594 10644
" />
<path d="M16894 11019
L16950 11037
L17044 11037
L17081 11019
L17100 11000
L17119 10962
L17119 10925
L17100 10887
L17081 10869
L17044 10850
L16969 10831
L16931 10812
L16913 10794
L16894 10756
L16894 10719
L16913 10681
L16931 10662
L16969 10644
L17063 10644
L17119 10662
" />
<path d="M17494 11037
L17269 11037
" />
<path d="M17381 11037
L17381 10644
L17344 10700
L17306 10737
L17269 10756
" />
<path d="M17737 10644
L17775 10644
L17812 10662
L17831 10681
L17850 10719
L17869 10794
L17869 10887
L17850 10962
L17831 11000
L17812 11019
L17775 11037
L17737 11037
L17700 11019
L17681 11000
L17662 10962
L17644 10887
L17644 10794
L17662 10719
L17681 10681
L17700 10662
L17737 10644
" />
<path d="M18244 11037
L18019 11037
" />
<path d="M18131 11037
L18131 10644
L18094 10700
L18056 10737
L18019 10756
" />
<text x="14959.8" y="5406.69"
textLength="564.211" font-size="524.934" lengthAdjust="spacingAndGlyphs"
text-anchor="middle" opacity="0">-</text>
<path d="M14809 5237
L15109 5237
" />
<text x="8959.84" y="5406.69"
textLength="564.211" font-size="524.934" lengthAdjust="spacingAndGlyphs"
text-anchor="middle" opacity="0">+</text>
<path d="M8809 5237
L9109 5237
" />
<path d="M8959 5387
L8959 5087
" />
<text x="19709.8" y="6256.69"
textLength="1595.33" font-size="524.934" lengthAdjust="spacingAndGlyphs"
text-anchor="middle" opacity="0">C103</text>
<path d="M19269 6200
L19250 6219
L19194 6237
L19156 6237
L19100 6219
L19063 6181
L19044 6144
L19025 6069
L19025 6012
L19044 5937
L19063 5900
L19100 5862
L19156 5844
L19194 5844
L19250 5862
L19269 5881
" />
<path d="M19644 6237
L19419 6237
" />
<path d="M19531 6237
L19531 5844
L19494 5900
L19456 5937
L19419 5956
" />
<path d="M19887 5844
L19925 5844
L19962 5862
L19981 5881
L20000 5919
L20019 5994
L20019 6087
L20000 6162
L19981 6200
L19962 6219
L19925 6237
L19887 6237
L19850 6219
L19831 6200
L19812 6162
L19794 6087
L19794 5994
L19812 5919
L19831 5881
L19850 5862
L19887 5844
" />
<path d="M20150 5844
L20394 5844
L20262 5994
L20319 5994
L20356 6012
L20375 6031
L20394 6069
L20394 6162
L20375 6200
L20356 6219
L20319 6237
L20206 6237
L20169 6219
L20150 6200
" />
<g transform="rotate(-90 19609.8 16459.8)">
<text x="19609.8" y="16656.7"
textLength="1614.08" font-size="524.934" lengthAdjust="spacingAndGlyphs"
text-anchor="middle" opacity="0">U101</text>
</g>
<path d="M19394 17134
L19712 17134
L19750 17116
L19769 17097
L19787 17059
L19787 16984
L19769 16947
L19750 16928
L19712 16909
L19394 16909
" />
<path d="M19787 16516
L19787 16741
" />
<path d="M19787 16628
L19394 16628
L19450 16666
L19487 16703
L19506 16741
" />
<path d="M19394 16272
L19394 16234
L19412 16197
L19431 16178
L19469 16159
L19544 16141
L19637 16141
L19712 16159
L19750 16178
L19769 16197
L19787 16234
L19787 16272
L19769 16309
L19750 16328
L19712 16347
L19637 16366
L19544 16366
L19469 16347
L19431 16328
L19412 16309
L19394 16272
" />
<path d="M19787 15766
L19787 15991
" />
<path d="M19787 15878
L19394 15878
L19450 15916
L19487 15953
L19506 15991
" />
<text x="1409.84" y="8106.69"
textLength="1576.58" font-size="524.934" lengthAdjust="spacingAndGlyphs"
text-anchor="middle" opacity="0">S101</text>
<path d="M734 8069
L791 8087
L884 8087
L922 8069
L941 8050
L959 8012
L959 7975
L941 7937
L922 7919
L884 7900
L809 7881
L772 7862
L753 7844
L734 7806
L734 7769
L753 7731
L772 7712
L809 7694
L903 7694
L959 7712
" />
<path d="M1334 8087
L1109 8087
" />
<path d="M1222 8087
L1222 7694
L1184 7750
L1147 7787
L1109 7806
" />
<path d="M1578 7694
L1616 7694
L1653 7712
L1672 7731
L1691 7769
L1709 7844
L1709 7937
L1691 8012
L1672 8050
L1653 8069
L1616 8087
L1578 8087
L1541 8069
L1522 8050
L1503 8012
L1484 7937
L1484 7844
L1503 7769
L1522 7731
L1541 7712
L1578 7694
" />
<path d="M2084 8087
L1859 8087
" />
<path d="M1972 8087
L1972 7694
L1934 7750
L1897 7787
L1859 7806
" />
<text x="23309.8" y="3356.69"
textLength="1932.79" font-size="524.934" lengthAdjust="spacingAndGlyphs"
text-anchor="middle" opacity="0">RV103</text>
<path d="M22700 3337
L22569 3150
" />
<path d="M22475 3337
L22475 2944
L22625 2944
L22663 2962
L22681 2981
L22700 3019
L22700 3075
L22681 3112
L22663 3131
L22625 3150
L22475 3150
" />
<path d="M22813 2944
L22944 3337
L23075 2944
" />
<path d="M23412 3337
L23187 3337
" />
<path d="M23300 3337
L23300 2944
L23262 3000
L23225 3037
L23187 3056
" />
<path d="M23656 2944
L23694 2944
L23731 2962
L23750 2981
L23769 3019
L23787 3094
L23787 3187
L23769 3262
L23750 3300
L23731 3319
L23694 3337
L23656 3337
L23619 3319
L23600 3300
L23581 3262
L23562 3187
L23562 3094
L23581 3019
L23600 2981
L23619 2962
L23656 2944
" />
<path d="M23919 2944
L24162 2944
L24031 3094
L24087 3094
L24125 3112
L24144 3131
L24162 3169
L24162 3262
L24144 3300
L24125 3319
L24087 3337
L23975 3337
L23937 3319
L23919 3300
" />
<g transform="rotate(-90 6409.84 1859.84)">
<text x="6409.84" y="2056.69"
textLength="1595.33" font-size="524.934" lengthAdjust="spacingAndGlyphs"
text-anchor="middle" opacity="0">D101</text>
</g>
<path d="M6587 2525
L6194 2525
L6194 2431
L6212 2375
L6250 2337
L6287 2319
L6362 2300
L6419 2300
L6494 2319
L6531 2337
L6569 2375
L6587 2431
L6587 2525
" />
<path d="M6587 1925
L6587 2150
" />
<path d="M6587 2037
L6194 2037
L6250 2075
L6287 2112
L6306 2150
" />
<path d="M6194 1681
L6194 1644
L6212 1606
L6231 1588
L6269 1569
L6344 1550
L6437 1550
L6512 1569
L6550 1588
L6569 1606
L6587 1644
L6587 1681
L6569 1719
L6550 1737
L6512 1756
L6437 1775
L6344 1775
L6269 1756
L6231 1737
L6212 1719
L6194 1681
" />
<path d="M6587 1175
L6587 1400
" />
<path d="M6587 1288
L6194 1288
L6250 1325
L6287 1363
L6306 1400
" />
<text x="23409.8" y="7456.69"
textLength="1595.33" font-size="524.934" lengthAdjust="spacingAndGlyphs"
text-anchor="middle" opacity="0">C102</text>
<path d="M22969 7400
L22950 7419
L22894 7437
L22856 7437
L22800 7419
L22763 7381
L22744 7344
L22725 7269
L22725 7212
L22744 7137
L22763 7100
L22800 7062
L22856 7044
L22894 7044
L22950 7062
L22969 7081
" />
<path d="M23344 7437
L23119 7437
" />
<path d="M23231 7437
L23231 7044
L23194 7100
L23156 7137
L23119 7156
" />
<path d="M23587 7044
L23625 7044
L23662 7062
L23681 7081
L23700 7119
L23719 7194
L23719 7287
L23700 7362
L23681 7400
L23662 7419
L23625 7437
L23587 7437
L23550 7419
L23531 7400
L23512 7362
L23494 7287
L23494 7194
L23512 7119
L23531 7081
L23550 7062
L23587 7044
" />
<path d="M23869 7081
L23887 7062
L23925 7044
L24019 7044
L24056 7062
L24075 7081
L24094 7119
L24094 7156
L24075 7212
L23850 7437
L24094 7437
" />
<g transform="rotate(-90 5509.84 16459.8)">
<text x="5509.84" y="16656.7"
textLength="1595.33" font-size="524.934" lengthAdjust="spacingAndGlyphs"
text-anchor="middle" opacity="0">C101</text>
</g>
<path d="M5650 16900
L5669 16919
L5687 16975
L5687 17012
L5669 17069
L5631 17106
L5594 17125
L5519 17144
L5462 17144
L5387 17125
L5350 17106
L5312 17069
L5294 17012
L5294 16975
L5312 16919
L5331 16900
" />
<path d="M5687 16525
L5687 16750
" />
<path d="M5687 16637
L5294 16637
L5350 16675
L5387 16712
L5406 16750
" />
<path d="M5294 16281
L5294 16244
L5312 16206
L5331 16188
L5369 16169
L5444 16150
L5537 16150
L5612 16169
L5650 16188
L5669 16206
L5687 16244
L5687 16281
L5669 16319
L5650 16337
L5612 16356
L5537 16375
L5444 16375
L5369 16356
L5331 16337
L5312 16319
L5294 16281
" />
<path d="M5687 15775
L5687 16000
" />
<path d="M5687 15888
L5294 15888
L5350 15925
L5387 15963
L5406 16000
" />
<text x="10409.8" y="14256.7"
textLength="1895.29" font-size="524.934" lengthAdjust="spacingAndGlyphs"
text-anchor="middle" opacity="0">BT101</text>
<path d="M9725 14031
L9781 14050
L9800 14069
L9819 14106
L9819 14162
L9800 14200
L9781 14219
L9744 14237
L9594 14237
L9594 13844
L9725 13844
L9763 13862
L9781 13881
L9800 13919
L9800 13956
L9781 13994
L9763 14012
L9725 14031
L9594 14031
" />
<path d="M9931 13844
L10156 13844
" />
<path d="M10044 14237
L10044 13844
" />
<path d="M10494 14237
L10269 14237
" />
<path d="M10381 14237
L10381 13844
L10344 13900
L10306 13937
L10269 13956
" />
<path d="M10737 13844
L10775 13844
L10812 13862
L10831 13881
L10850 13919
L10869 13994
L10869 14087
L10850 14162
L10831 14200
L10812 14219
L10775 14237
L10737 14237
L10700 14219
L10681 14200
L10662 14162
L10644 14087
L10644 13994
L10662 13919
L10681 13881
L10700 13862
L10737 13844
" />
<path d="M11244 14237
L11019 14237
" />
<path d="M11131 14237
L11131 13844
L11094 13900
L11056 13937
L11019 13956
" />
<g transform="rotate(-90 3109.84 8109.84)">
<text x="3109.84" y="8306.69"
textLength="1595.33" font-size="524.934" lengthAdjust="spacingAndGlyphs"
text-anchor="middle" opacity="0">R101</text>
</g>
<path d="M3287 8550
L3100 8681
" />
<path d="M3287 8775
L2894 8775
L2894 8625
L2912 8587
L2931 8569
L2969 8550
L3025 8550
L3062 8569
L3081 8587
L3100 8625
L3100 8775
" />
<path d="M3287 8175
L3287 8400
" />
<path d="M3287 8287
L2894 8287
L2950 8325
L2987 8362
L3006 8400
" />
<path d="M2894 7931
L2894 7894
L2912 7856
L2931 7838
L2969 7819
L3044 7800
L3137 7800
L3212 7819
L3250 7838
L3269 7856
L3287 7894
L3287 7931
L3269 7969
L3250 7987
L3212 8006
L3137 8025
L3044 8025
L2969 8006
L2931 7987
L2912 7969
L2894 7931
" />
<path d="M3287 7425
L3287 7650
" />
<path d="M3287 7538
L2894 7538
L2950 7575
L2987 7613
L3006 7650
" />
<text x="7109.84" y="11856.7"
textLength="1595.33" font-size="524.934" lengthAdjust="spacingAndGlyphs"
text-anchor="middle" opacity="0">R102</text>
<path d="M6669 11837
L6538 11650
" />
<path d="M6444 11837
L6444 11444
L6594 11444
L6631 11462
L6650 11481
L6669 11519
L6669 11575
L6650 11612
L6631 11631
L6594 11650
L6444 11650
" />
<path d="M7044 11837
L6819 11837
" />
<path d="M6931 11837
L6931 11444
L6894 11500
L6856 11537
L6819 11556
" />
<path d="M7287 11444
L7325 11444
L7362 11462
L7381 11481
L7400 11519
L7419 11594
L7419 11687
L7400 11762
L7381 11800
L7362 11819
L7325 11837
L7287 11837
L7250 11819
L7231 11800
L7212 11762
L7194 11687
L7194 11594
L7212 11519
L7231 11481
L7250 11462
L7287 11444
" />
<path d="M7569 11481
L7587 11462
L7625 11444
L7719 11444
L7756 11462
L7775 11481
L7794 11519
L7794 11556
L7775 11612
L7550 11837
L7794 11837
" />
<g >
</g>
</g>
<g style="fill:#000000; fill-opacity:0.0; 
stroke:#000000; stroke-width:59.0551; stroke-opacity:1; 
stroke-linecap:round; stroke-linejoin:round;">
</g>
<g style="fill:#000000; fill-opacity:0.0; 
stroke:#000000; stroke-width:19.685; stroke-opacity:1; 
stroke-linecap:round; stroke-linejoin:round;">
<path d="M24909 18132
L9 18132
" />
<path d="M24909 9
L9 9
" />
<path d="M9 1001
L9 17109
" />
<path d="M24909 9
L24909 18132
" />
<g >
</g>
<g >
</g>
<g >
</g>
<g >
</g>
<g >
</g>
<g >
</g>
<g >
</g>
<g >
</g>
<g >
</g>
<g >
</g>
<g >
</g>
<g >
</g>
<g >
</g>
<g >
</g>
<g >
</g>
<g >
</g>
<g >
</g>
<g >
</g>
<g >
</g>
</g> 
</svg>
