<svg height="6.67258cm" viewBox="0 0 88567.14 26270" width="22.496054cm" xmlns="http://www.w3.org/2000/svg"><g stroke-linecap="round" stroke-linejoin="round"><g fill-opacity="0" stroke="#000" stroke-width="60" transform="translate(-9670 -23980)"><g fill="none" stroke="#850000"><path d="m31200 25500 300-500"/><path d="m31500 26000v-1000"/><path d="m31500 25000 300 500"/></g><g fill="#008484" stroke="#008484"><text font-size="660" lengthAdjust="spacingAndGlyphs" opacity="0" text-anchor="middle" textLength="1580" x="31650" y="24540">+9V</text><path d="m31000 24320h380"/><path d="m31190 24510v-380"/><path d="m31650 24510h90l50-20 20-30 50-70 20-90v-190l-20-50-20-20-50-30h-100l-40 30-30 20-20 50v120l20 40 30 30 40 20h100l50-20 20-30 20-40"/><path d="m32030 24010 160 500 170-500"/></g></g><g fill="#008484" fill-opacity="0" stroke="#008484" stroke-width="60" transform="translate(-9670 -23980)"><g fill="none" stroke="#850000"><path d="m87400 33000h100"/><path d="m85600 33000h-100"/><path d="m86200 32400h600"/><path d="m86500 32000v400"/><path d="m86800 33000 150-400 150 400 150 400 150-400"/><path d="m86200 33000 150-400 150 400 150 400 150-400"/><path d="m85600 33000 150-400 150 400 150 400 150-400"/></g><g fill="#840000" stroke="#840000"><path d="m85500 33000h-500"/><text font-size="660" lengthAdjust="spacingAndGlyphs" opacity="0" text-anchor="middle" textLength="540" x="85250" y="32900">1</text><path d="m85390 32870h-290"/><path d="m85250 32870v-500l-50 70-50 50-50 20"/><path d="m86500 32000v-500"/><text font-size="660" lengthAdjust="spacingAndGlyphs" opacity="0" text-anchor="middle" textLength="540" transform="matrix(0 -1 1 0 54650 118150)" x="86400" y="31750">2</text><path d="m85920 31890-20-30-30-40v-120l30-50 20-20 50-30h40l80 30 280 280v-310"/><path d="m87500 33000h500"/><text font-size="660" lengthAdjust="spacingAndGlyphs" opacity="0" text-anchor="middle" textLength="540" x="87750" y="32900">3</text><path d="m87580 32370h310l-170 190h70l50 30 20 20 30 50v120l-30 40-20 30-50 20h-140l-50-20-20-30"/></g><g fill="#008484" stroke="#008484"><text font-size="660" lengthAdjust="spacingAndGlyphs" opacity="0" text-anchor="middle" textLength="2420" x="86500" y="34350">RV103</text><path d="m85720 34320-170-240"/><path d="m85440 34320v-500h190l40 30 30 20 20 50v70l-20 50-30 20-40 20h-190"/><path d="m85860 33820 170 500 170-500"/><path d="m86630 34320h-290"/><path d="m86480 34320v-500l-40 70-50 50-50 20"/><path d="m86940 33820h40l50 30 20 20 30 50 20 90v120l-20 100-30 40-20 30-50 20h-40l-50-20-30-30-20-40-20-100v-120l20-90 20-50 30-20z"/><path d="m87270 33820h310l-170 190h70l50 30 20 20 30 50v120l-30 40-20 30-50 20h-140l-50-20-20-30"/><text font-size="660" lengthAdjust="spacingAndGlyphs" opacity="0" text-anchor="middle" textLength="940" x="86500" y="35260">1k</text><path d="m86440 35230h-290"/><path d="m86290 35230v-500l-40 70-50 50-50 20"/><path d="m86650 35230v-500"/><path d="m86700 35040 140 190"/><path d="m86840 34900-190 190"/></g></g><g fill="#008484" fill-opacity="0" stroke="#008484" stroke-width="60"><g stroke="#850000"><path d="m72530 8120h200v1800h-200z" fill="none"/><path d="m71930 8120h200v1800h-200z" fill="#850000" fill-opacity="1"/><g fill="none" fill-opacity="0" transform="translate(-9670 -23980)"><path d="m82900 32300v400"/><path d="m83100 32500h-400"/></g></g><g fill="#840000" fill-opacity="0" stroke="#840000" transform="translate(-9670 -23980)"><path d="m82400 33000h1100"/><path d="m81600 33000h-1100"/></g><g fill="#008484" fill-opacity="0" stroke="#008484" transform="translate(-9670 -23980)"><text font-size="660" lengthAdjust="spacingAndGlyphs" opacity="0" text-anchor="middle" textLength="1990" x="82000" y="30720">C103</text><path d="m81440 30640-30 30-70 20h-50l-70-20-50-50-20-50-20-90v-70l20-100 20-50 50-40 70-30h50l70 30 30 20"/><path d="m81910 30690h-280"/><path d="m81770 30690v-500l-50 70-50 50-40 20"/><path d="m82220 30190h50l50 30 20 20 20 50 30 90v120l-30 100-20 40-20 30-50 20h-50l-50-20-20-30-20-40-30-100v-120l30-90 20-50 20-20z"/><path d="m82550 30190h310l-160 190h70l50 30 20 20 20 50v120l-20 40-20 30-50 20h-140l-50-20-30-30"/><text font-size="660" lengthAdjust="spacingAndGlyphs" opacity="0" text-anchor="middle" textLength="1890" x="82000" y="31630">10uF</text><path d="m81460 31600h-290"/><path d="m81320 31600v-500l-50 70-50 50-50 20"/><path d="m81770 31100h50l40 30 30 20 20 50 30 90v120l-30 100-20 40-30 30-40 20h-50l-50-20-20-30-30-40-20-100v-120l20-90 30-50 20-20z"/><path d="m82360 31270v330"/><path d="m82150 31270v260l20 50 50 20h70l50-20 20-30"/><path d="m82770 31340h-170"/><path d="m82600 31600v-500h240"/></g></g><g fill="#008484" fill-opacity="0" stroke="#008484" stroke-width="60" transform="translate(-9670 -23980)"><g fill="none" stroke="#850000"><path d="m77000 30100v-100"/><path d="m77000 31900v100"/><path d="m76400 31300v-600"/><path d="m76000 31000h400"/><path d="m77000 30700-400-150 400-150 400-150-400-150"/><path d="m77000 31300-400-150 400-150 400-150-400-150"/><path d="m77000 31900-400-150 400-150 400-150-400-150"/></g><g fill="#840000" stroke="#840000"><path d="m77000 32000v500"/><text font-size="660" lengthAdjust="spacingAndGlyphs" opacity="0" text-anchor="middle" textLength="540" transform="matrix(0 -1 1 0 44650 109150)" x="76900" y="32250">1</text><path d="m76870 32100v290"/><path d="m76870 32250h-500l70 40 50 50 20 50"/><path d="m76000 31000h-500"/><text font-size="660" lengthAdjust="spacingAndGlyphs" opacity="0" text-anchor="middle" textLength="540" x="75750" y="30900">2</text><path d="m75600 30420 30-20 40-30h120l50 30 20 20 30 50v40l-30 80-280 280h310"/><path d="m77000 30000v-500"/><text font-size="660" lengthAdjust="spacingAndGlyphs" opacity="0" text-anchor="middle" textLength="540" transform="matrix(0 -1 1 0 47150 106650)" x="76900" y="29750">3</text><path d="m76370 29910v-310l190 170v-70l30-50 20-20 50-30h120l40 30 30 20 20 50v140l-20 50-30 20"/></g><g fill="#008484" stroke="#008484"><text font-size="660" lengthAdjust="spacingAndGlyphs" opacity="0" text-anchor="middle" textLength="2420" x="79210" y="28220">RV102</text><path d="m78430 28190-170-240"/><path d="m78150 28190v-500h190l40 30 30 20 20 50v70l-20 50-30 20-40 20h-190"/><path d="m78570 27690 170 500 170-500"/><path d="m79340 28190h-290"/><path d="m79190 28190v-500l-40 70-50 50-50 20"/><path d="m79650 27690h40l50 30 20 20 30 50 20 90v120l-20 100-30 40-20 30-50 20h-40l-50-20-30-30-20-40-20-100v-120l20-90 20-50 30-20z"/><path d="m80000 27740 30-20 40-30h120l50 30 20 20 30 50v40l-30 80-280 280h310"/><text font-size="660" lengthAdjust="spacingAndGlyphs" opacity="0" text-anchor="middle" textLength="3660" x="79830" y="29220">500k-1m</text><path d="m78380 28690h-230l-30 240 30-20 40-30h120l50 30 20 20 30 50v120l-30 40-20 30-50 20h-120l-40-20-30-30"/><path d="m78720 28690h50l40 30 30 20 20 50 20 90v120l-20 100-20 40-30 30-40 20h-50l-50-20-20-30-30-40-20-100v-120l20-90 30-50 20-20z"/><path d="m79190 28690h50l50 30 20 20 30 50 20 90v120l-20 100-30 40-20 30-50 20h-50l-40-20-30-30-20-40-20-100v-120l20-90 20-50 30-20z"/><path d="m79580 29190v-500"/><path d="m79620 29000 150 190"/><path d="m79770 28860-190 190"/><path d="m79980 29000h380"/><path d="m80860 29190h-280"/><path d="m80720 29190v-500l-50 70-50 50-40 20"/><path d="m81080 29190v-330"/><path d="m81080 28910 20-30 50-20h70l50 20 20 50v260"/><path d="m81290 28930 20-50 50-20h70l50 20 20 50v260"/></g></g><g fill="#008484" fill-opacity="0" stroke="#008484" stroke-width="0"><path d="m28330 8020h7000v6000h-7000z" fill="#ffffc2" fill-opacity=".6" stroke="none"/><path d="m28330 8020h7000v6000h-7000z" fill="none" stroke="#850000" stroke-linecap="round" stroke-linejoin="round" stroke-width="100"/><path d="m28330 8020h7000v6000h-7000z" fill="#ffffc2" fill-opacity=".6" stroke="none"/><g stroke-linecap="round" stroke-linejoin="round"><g fill="#850000" fill-opacity="0" stroke="#850000" stroke-width="100"><path d="m28330 8020h7000v6000h-7000z"/><path d="m28330 8020h7000v6000h-7000z"/><path d="m28330 8020h7000v6000h-7000z"/></g><path d="m41500 32000v-1000" fill="none" stroke="#840000" stroke-width="60" transform="translate(-9670 -23980)"/><g fill="#008484" fill-opacity="0" stroke="#008484" stroke-width="60" transform="translate(-9670 -23980)"><text font-size="660" lengthAdjust="spacingAndGlyphs" opacity="0" text-anchor="end" textLength="1490" transform="matrix(0 -1 1 0 9300 73700)" x="41500" y="32450">VCC</text><path d="m41220 33610 500-170-500-170"/><path d="m41670 32820 30 20 20 80v40l-20 70-50 50-50 30-90 20h-70l-100-20-50-30-40-50-30-70v-40l30-80 20-20"/><path d="m41670 32320 30 20 20 80v40l-20 70-50 50-50 30-90 20h-70l-100-20-50-30-40-50-30-70v-40l30-80 20-20"/></g><g fill="#840000" fill-opacity="0" stroke="#840000" stroke-width="60" transform="translate(-9670 -23980)"><text font-size="660" lengthAdjust="spacingAndGlyphs" opacity="0" text-anchor="middle" textLength="1010" transform="matrix(0 -1 1 0 9900 72900)" x="41400" y="31500">14</text><path d="m41370 31590v290"/><path d="m41370 31730h-500l70 50 50 50 20 50"/><path d="m41040 31160h330"/><path d="m40850 31280 350 120v-310"/><path d="m41500 38000v1000"/></g><g fill="#008484" fill-opacity="0" stroke="#008484" stroke-width="60" transform="translate(-9670 -23980)"><text font-size="660" lengthAdjust="spacingAndGlyphs" opacity="0" textLength="1580" transform="matrix(0 -1 1 0 3700 79300)" x="41500" y="38050">GND</text><path d="m41250 37380-30 50v70l30 70 40 50 50 30 100 20h70l90-20 50-30 50-50 20-70v-40l-20-80-30-20h-160v100"/><path d="m41720 37150h-500l500-290h-500"/><path d="m41720 36620h-500v-120l30-70 40-50 50-20 100-20h70l90 20 50 20 50 50 20 70z"/></g><g fill="#840000" fill-opacity="0" stroke="#840000" stroke-width="60" transform="translate(-9670 -23980)"><text font-size="660" lengthAdjust="spacingAndGlyphs" opacity="0" text-anchor="middle" textLength="540" transform="matrix(0 -1 1 0 2900 79900)" x="41400" y="38500">7</text><path d="m40870 38660v-330l500 210"/><path d="m45000 35000h1500"/></g><g fill="#008484" fill-opacity="0" stroke="#008484" stroke-width="60" transform="translate(-9670 -23980)"><text font-size="660" lengthAdjust="spacingAndGlyphs" opacity="0" text-anchor="end" textLength="1270" x="44800" y="35250">DIS</text><path d="m43670 35220v-500h120l70 30 50 40 20 50 30 100v70l-30 90-20 50-50 50-70 20z"/><path d="m44170 35220v-500"/><path d="m44380 35200 80 20h110l50-20 30-30 20-40v-50l-20-50-30-20-50-30-90-20-50-20-20-30-30-50v-40l30-50 20-20 50-30h120l70 30"/></g><g fill="#840000" fill-opacity="0" stroke="#840000" stroke-width="60" transform="translate(-9670 -23980)"><text font-size="660" lengthAdjust="spacingAndGlyphs" opacity="0" text-anchor="middle" textLength="540" x="45750" y="34900">1</text><path d="m45890 34870h-290"/><path d="m45750 34870v-500l-50 70-50 50-50 20"/><path d="m45000 37000h1500"/></g><g fill="#008484" fill-opacity="0" stroke="#008484" stroke-width="60" transform="translate(-9670 -23980)"><text font-size="660" lengthAdjust="spacingAndGlyphs" opacity="0" text-anchor="end" textLength="1460" x="44800" y="37250">THR</text><path d="m43410 36720h280"/><path d="m43550 37220v-500"/><path d="m43860 37220v-500"/><path d="m43860 36960h290"/><path d="m44150 37220v-500"/><path d="m44670 37220-170-240"/><path d="m44380 37220v-500h190l50 30 30 20 20 50v70l-20 50-30 20-50 20h-190"/></g><g fill="#840000" fill-opacity="0" stroke="#840000" stroke-width="60" transform="translate(-9670 -23980)"><text font-size="660" lengthAdjust="spacingAndGlyphs" opacity="0" text-anchor="middle" textLength="540" x="45750" y="36900">2</text><path d="m45600 36420 30-20 40-30h120l50 30 20 20 30 50v40l-30 80-280 280h310"/><path d="m38000 35000h-1500"/></g><g fill="#008484" fill-opacity="0" stroke="#008484" stroke-width="60" transform="translate(-9670 -23980)"><text font-size="660" lengthAdjust="spacingAndGlyphs" opacity="0" textLength="990" x="38200" y="35250">CV</text><path d="m38630 35170-20 30-80 20h-40l-70-20-50-50-30-50-20-90v-70l20-100 30-50 50-40 70-30h40l80 30 20 20"/><path d="m38770 34720 170 500 170-500"/></g><g fill="#840000" fill-opacity="0" stroke="#840000" stroke-width="60" transform="translate(-9670 -23980)"><text font-size="660" lengthAdjust="spacingAndGlyphs" opacity="0" text-anchor="middle" textLength="540" x="37250" y="34900">3</text><path d="m37080 34370h310l-170 190h70l50 30 20 20 30 50v120l-30 40-20 30-50 20h-140l-50-20-20-30"/><circle cx="37750" cy="37000" r="250"/><path d="m37500 37000h-1000"/></g><g fill="#008484" fill-opacity="0" stroke="#008484" stroke-width="60" transform="translate(-9670 -23980)"><text font-size="660" lengthAdjust="spacingAndGlyphs" opacity="0" textLength="560" x="38200" y="37250">R</text><path d="m38630 37220-170-240"/><path d="m38340 37220v-500h190l50 30 30 20 20 50v70l-20 50-30 20-50 20h-190"/></g><g fill="#840000" fill-opacity="0" stroke="#840000" stroke-width="60" transform="translate(-9670 -23980)"><text font-size="660" lengthAdjust="spacingAndGlyphs" opacity="0" text-anchor="middle" textLength="540" x="37250" y="36900">4</text><path d="m37340 36540v330"/><path d="m37220 36350-120 350h310"/><path d="m45000 33000h1500"/></g><g fill="#008484" fill-opacity="0" stroke="#008484" stroke-width="60" transform="translate(-9670 -23980)"><text font-size="660" lengthAdjust="spacingAndGlyphs" opacity="0" text-anchor="end" textLength="580" x="44800" y="33250">Q</text><path d="m44690 33270-40-20-50-50-70-70-50-30h-50"/><path d="m44460 33220-50-20-50-50-20-100v-160l20-100 50-40 50-30h90l50 30 50 40 20 100v160l-20 100-50 50-50 20z"/></g><g fill="#840000" fill-opacity="0" stroke="#840000" stroke-width="60" transform="translate(-9670 -23980)"><text font-size="660" lengthAdjust="spacingAndGlyphs" opacity="0" text-anchor="middle" textLength="540" x="45750" y="32900">5</text><path d="m45860 32370h-230l-30 240 30-20 40-30h120l50 30 20 20 30 50v120l-30 40-20 30-50 20h-120l-40-20-30-30"/><path d="m38000 33000h-1500"/></g><g fill="#008484" fill-opacity="0" stroke="#008484" stroke-width="60" transform="translate(-9670 -23980)"><text font-size="660" lengthAdjust="spacingAndGlyphs" opacity="0" textLength="940" x="38200" y="33250">TR</text><path d="m38270 32720h290"/><path d="m38420 33220v-500"/><path d="m39010 33220-170-240"/><path d="m38730 33220v-500h190l40 30 30 20 20 50v70l-20 50-30 20-40 20h-190"/></g><g fill="#840000" fill-opacity="0" stroke="#840000" stroke-width="60" transform="translate(-9670 -23980)"><text font-size="660" lengthAdjust="spacingAndGlyphs" opacity="0" text-anchor="middle" textLength="540" x="37250" y="32900">6</text><path d="m37340 32370h-90l-50 30-30 20-40 70-30 100v190l30 40 20 30 50 20h90l50-20 20-30 30-40v-120l-30-50-20-20-50-30h-90l-50 30-20 20-30 50"/></g><g fill="#008484" fill-opacity="0" stroke="#008484" stroke-width="60" transform="translate(-9670 -23980)"><text font-size="660" lengthAdjust="spacingAndGlyphs" opacity="0" text-anchor="middle" textLength="2440" x="41500" y="29460">U101A</text><path d="m40420 28930v410l30 40 20 30 50 20h90l50-20 30-30 20-40v-410"/><path d="m41210 29430h-290"/><path d="m41070 29430v-500l-50 70-50 50-50 20"/><path d="m41520 28930h50l40 30 30 20 20 50 30 90v120l-30 100-20 40-30 30-40 20h-50l-50-20-20-30-30-40-20-100v-120l20-90 30-50 20-20z"/><path d="m42160 29430h-280"/><path d="m42020 29430v-500l-50 70-50 50-40 20"/><path d="m42350 29290h240"/><path d="m42300 29430 170-500 170 500"/><text font-size="660" lengthAdjust="spacingAndGlyphs" opacity="0" text-anchor="middle" textLength="2460" x="41500" y="30370">LM556</text><path d="m40650 30340h-240v-500"/><path d="m40820 30340v-500l160 360 170-360v500"/><path d="m41630 29840h-240l-30 240 30-20 50-30h110l50 30 30 20 20 50v120l-20 40-30 30-50 20h-110l-50-20-30-30"/><path d="m42100 29840h-240l-20 240 20-20 50-30h120l50 30 20 20 30 50v120l-30 40-20 30-50 20h-120l-50-20-20-30"/><path d="m42550 29840h-90l-50 30-20 20-50 70-20 100v190l20 40 20 30 50 20h100l40-20 30-30 20-40v-120l-20-50-30-20-40-30h-100l-50 30-20 20-20 50"/></g></g></g><g fill="#008484" fill-opacity="0" stroke="#008484" stroke-width="60"><g fill="#850000" fill-opacity="1" stroke="#850000"><circle cx="7930" cy="4020" r="140"/><circle cx="9730" cy="5020" r="140"/><circle cx="9830" cy="3020" r="140"/></g><g transform="translate(-9670 -23980)"><path d="m17700 28000 2000-900" fill="none" stroke="#850000"/><g fill="#840000" fill-opacity="0" stroke="#840000"><path d="m19500 27000h1000"/><text font-size="660" lengthAdjust="spacingAndGlyphs" opacity="0" text-anchor="middle" textLength="540" x="20000" y="27600">1</text><path d="m20140 27570h-290"/><path d="m20000 27570v-500l-50 70-50 50-50 20"/><path d="m17500 28000h-1000"/><text font-size="660" lengthAdjust="spacingAndGlyphs" opacity="0" text-anchor="middle" textLength="540" x="17000" y="28600">2</text><path d="m16850 28120 30-20 40-30h120l50 30 20 20 30 50v40l-30 80-280 280h310"/><path d="m19500 29000h1000"/><text font-size="660" lengthAdjust="spacingAndGlyphs" opacity="0" text-anchor="middle" textLength="540" x="20000" y="29600">3</text><path d="m19830 29070h310l-170 190h70l50 30 20 20 30 50v120l-30 40-20 30-50 20h-140l-50-20-20-30"/></g><g fill="#008484" fill-opacity="0" stroke="#008484"><text font-size="660" lengthAdjust="spacingAndGlyphs" opacity="0" text-anchor="middle" textLength="1960" x="18500" y="25460">S101</text><path d="m17640 25410 70 20h120l50-20 20-30 20-40v-50l-20-50-20-20-50-30-100-20-40-20-30-30-20-50v-40l20-50 30-20 40-30h120l70 30"/><path d="m18400 25430h-290"/><path d="m18260 25430v-500l-50 70-50 50-50 20"/><path d="m18710 24930h50l40 30 30 20 20 50 30 90v120l-30 100-20 40-30 30-40 20h-50l-50-20-20-30-30-40-20-100v-120l20-90 30-50 20-20z"/><path d="m19350 25430h-280"/><path d="m19210 25430v-500l-50 70-50 50-40 20"/><text font-size="660" lengthAdjust="spacingAndGlyphs" opacity="0" text-anchor="middle" textLength="2920" x="18500" y="26370">EG1218</text><path d="m17190 26080h160"/><path d="m17420 26340h-230v-500h230"/><path d="m17900 25870-50-30h-70l-70 30-50 40-20 50-30 100v70l30 90 20 50 50 50 70 20h50l70-20 20-30v-160h-90"/><path d="m18400 26340h-290"/><path d="m18260 26340v-500l-50 70-50 50-50 20"/><path d="m18590 25890 20-20 50-30h120l50 30 20 20 30 50v40l-30 80-280 280h310"/><path d="m19350 26340h-280"/><path d="m19210 26340v-500l-50 70-50 50-40 20"/><path d="m19640 26060-50-30-20-20-30-50v-20l30-50 20-20 50-30h90l50 30 20 20 30 50v20l-30 50-20 20-50 30h-90l-50 20-20 20-30 50v100l30 40 20 30 50 20h90l50-20 20-30 30-40v-100l-30-50-20-20-50-20"/></g></g></g><g fill="#008484" fill-opacity="0" stroke="#008484" stroke-width="0"><path d="m13930 11020h800v2000h-800z" fill="none" stroke="#850000" stroke-width="100"/><g fill-opacity="0" stroke-width="60" transform="translate(-9670 -23980)"><g fill="#840000" stroke="#840000"><path d="m24000 35000v-500"/><path d="m24000 37000v500"/></g><g fill="#008484" stroke="#008484"><text font-size="660" lengthAdjust="spacingAndGlyphs" opacity="0" text-anchor="middle" textLength="1990" x="25990" y="35770">R101</text><path d="m25430 35740-170-240"/><path d="m25140 35740v-500h190l50 30 20 20 30 50v70l-30 50-20 20-50 20h-190"/><path d="m25900 35740h-280"/><path d="m25760 35740v-500l-50 70-50 50-40 20"/><path d="m26210 35240h50l50 30 20 20 20 50 30 90v120l-30 100-20 40-20 30-50 20h-50l-50-20-20-30-20-40-30-100v-120l30-90 20-50 20-20z"/><path d="m26850 35740h-280"/><path d="m26710 35740v-500l-50 70-40 50-50 20"/><text font-size="660" lengthAdjust="spacingAndGlyphs" opacity="0" text-anchor="middle" textLength="1490" x="25740" y="36770">330</text><path d="m25090 36240h310l-160 190h70l40 30 30 20 20 50v120l-20 40-30 30-40 20h-150l-40-20-30-30"/><path d="m25570 36240h310l-170 190h70l50 30 20 20 30 50v120l-30 40-20 30-50 20h-140l-50-20-20-30"/><path d="m26190 36240h50l40 30 30 20 20 50 20 90v120l-20 100-20 40-30 30-40 20h-50l-50-20-20-30-30-40-20-100v-120l20-90 30-50 20-20z"/></g></g></g><g fill="#008484" fill-opacity="0" stroke="#008484" stroke-width="60" transform="translate(-9670 -23980)"><g fill="none" stroke="#850000"><path d="m50500 31100v-100"/><path d="m50500 32900v100"/><path d="m49900 32300v-600"/><path d="m49500 32000h400"/><path d="m50500 31700-400-150 400-150 400-150-400-150"/><path d="m50500 32300-400-150 400-150 400-150-400-150"/><path d="m50500 32900-400-150 400-150 400-150-400-150"/></g><g fill="#840000" stroke="#840000"><path d="m50500 33000v500"/><text font-size="660" lengthAdjust="spacingAndGlyphs" opacity="0" text-anchor="middle" textLength="540" transform="matrix(0 -1 1 0 17150 83650)" x="50400" y="33250">1</text><path d="m50370 33100v290"/><path d="m50370 33250h-500l70 40 50 50 20 50"/><path d="m49500 32000h-500"/><text font-size="660" lengthAdjust="spacingAndGlyphs" opacity="0" text-anchor="middle" textLength="540" x="49250" y="31900">2</text><path d="m49100 31420 30-20 40-30h120l50 30 20 20 30 50v40l-30 80-280 280h310"/><path d="m50500 31000v-500"/><text font-size="660" lengthAdjust="spacingAndGlyphs" opacity="0" text-anchor="middle" textLength="540" transform="matrix(0 -1 1 0 19650 81150)" x="50400" y="30750">3</text><path d="m49870 30910v-310l190 170v-70l30-50 20-20 50-30h120l40 30 30 20 20 50v140l-20 50-30 20"/></g><g fill="#008484" stroke="#008484"><text font-size="660" lengthAdjust="spacingAndGlyphs" opacity="0" text-anchor="middle" textLength="2420" x="52390" y="31760">RV101</text><path d="m51610 31730-170-240"/><path d="m51330 31730v-500h190l40 30 30 20 20 50v70l-20 50-30 20-40 20h-190"/><path d="m51750 31230 170 500 170-500"/><path d="m52520 31730h-290"/><path d="m52370 31730v-500l-40 70-50 50-50 20"/><path d="m52830 31230h40l50 30 20 20 30 50 20 90v120l-20 100-30 40-20 30-50 20h-40l-50-20-30-30-20-40-20-100v-120l20-90 20-50 30-20z"/><path d="m53470 31730h-290"/><path d="m53330 31730v-500l-50 70-50 50-50 20"/><text font-size="660" lengthAdjust="spacingAndGlyphs" opacity="0" text-anchor="middle" textLength="3660" x="53010" y="32670">500k-1m</text><path d="m51560 32140h-230l-30 240 30-20 40-30h120l50 30 20 20 30 50v120l-30 40-20 30-50 20h-120l-40-20-30-30"/><path d="m51900 32140h50l40 30 30 20 20 50 20 90v120l-20 100-20 40-30 30-40 20h-50l-50-20-20-30-30-40-20-100v-120l20-90 30-50 20-20z"/><path d="m52370 32140h50l50 30 20 20 30 50 20 90v120l-20 100-30 40-20 30-50 20h-50l-40-20-30-30-20-40-20-100v-120l20-90 20-50 30-20z"/><path d="m52760 32640v-500"/><path d="m52800 32450 150 190"/><path d="m52950 32310-190 190"/><path d="m53160 32450h380"/><path d="m54040 32640h-280"/><path d="m53900 32640v-500l-50 70-50 50-40 20"/><path d="m54260 32640v-330"/><path d="m54260 32360 20-30 50-20h70l50 20 20 50v260"/><path d="m54470 32380 20-50 50-20h70l50 20 20 50v260"/></g></g><g fill="#008484" fill-opacity="0" stroke="#008484" stroke-width="0" transform="translate(-9670 -23980)"><g fill="none" stroke="#850000"><path d="m24500 41500h-1000" stroke-width="100"/><path d="m24000 41500v-1000" stroke-width="60"/><path d="m24500 40500h-1000l500 1000z" stroke-width="100"/><g fill-opacity="0" stroke-width="60"><path d="m24300 42200 600 600v-300 300h-300"/><path d="m24300 41700 600 600v-300 300h-300"/></g></g><g fill="#840000" fill-opacity="0" stroke="#840000" stroke-width="60"><path d="m24000 41500v1000"/><path d="m24000 40500v-1000"/></g><g fill="#008484" fill-opacity="0" stroke="#008484" stroke-width="60"><text font-size="660" lengthAdjust="spacingAndGlyphs" opacity="0" text-anchor="middle" textLength="1990" x="26170" y="40830">D101</text><path d="m25320 40800v-500h120l70 30 50 40 20 50 30 100v70l-30 90-20 50-50 50-70 20z"/><path d="m26080 40800h-280"/><path d="m25940 40800v-500l-50 70-50 50-40 20"/><path d="m26390 40300h50l50 30 20 20 20 50 30 90v120l-30 100-20 40-20 30-50 20h-50l-50-20-20-30-20-40-30-100v-120l30-90 20-50 20-20z"/><path d="m27030 40800h-280"/><path d="m26890 40800v-500l-50 70-40 50-50 20"/><text font-size="660" lengthAdjust="spacingAndGlyphs" opacity="0" text-anchor="middle" textLength="1420" x="25890" y="41740">LED</text><path d="m25560 41710h-230v-500"/><path d="m25730 41450h170"/><path d="m25970 41710h-240v-500h240"/><path d="m26180 41710v-500h120l70 30 50 40 20 50 30 100v70l-30 90-20 50-50 50-70 20z"/></g></g><g fill="#008484" fill-opacity="0" stroke="#008484" stroke-width="0"><g fill="#850000" fill-opacity="1" stroke="#850000" stroke-width="60"><path d="m30 19070h1600v100h-1600z"/><path d="m30 17820h1600v100h-1600z"/><path d="m310 19300h1020v200h-1020z"/><path d="m310 18050h1020v200h-1020z"/></g><g fill-opacity="0" transform="translate(-9670 -23980)"><g fill="none" stroke="#850000" stroke-width="60"><path d="m10500 43100v-100"/><path d="m10500 42900v-100"/><path d="m10500 42700v-100"/><path d="m10500 42500v-100"/><path d="m10500 42300v-100"/><path d="m10500 41800v-300"/></g><g fill="none" stroke="#850000" stroke-width="100"><path d="m10600 41450h400"/><path d="m10800 41250v400"/></g><g fill="#840000" stroke="#840000" stroke-width="60"><path d="m10500 41500v-1000"/><path d="m10500 43500v1000"/></g><g fill="#008484" stroke="#008484" stroke-width="60"><text font-size="660" lengthAdjust="spacingAndGlyphs" opacity="0" text-anchor="middle" textLength="2370" x="12760" y="42310">BT101</text><path d="m11890 42020 70 20 20 30 30 40v80l-30 40-20 30-50 20h-190v-500h170l40 30 30 20 20 50v40l-20 50-30 30-40 20h-170"/><path d="m12150 41780h280"/><path d="m12290 42280v-500"/><path d="m12860 42280h-280"/><path d="m12720 42280v-500l-50 70-50 50-40 20"/><path d="m13170 41780h50l50 30 20 20 20 50 30 90v120l-30 100-20 40-20 30-50 20h-50l-50-20-20-30-20-40-30-100v-120l30-90 20-50 20-20z"/><path d="m13810 42280h-280"/><path d="m13670 42280v-500l-50 70-40 50-50 20"/><text font-size="660" lengthAdjust="spacingAndGlyphs" opacity="0" text-anchor="middle" textLength="920" x="12040" y="43220">9v</text><path d="m11750 43190h90l50-20 30-30 40-70 30-90v-190l-30-50-20-20-50-30h-90l-50 30-20 20-30 50v120l30 40 20 30 50 20h90l50-20 20-30 30-40"/><path d="m12150 42860 120 330 120-330"/></g></g></g><g fill="#008484" fill-opacity="0" stroke="#008484" stroke-width="0"><path d="m52830 8020h7000v6000h-7000z" fill="#ffffc2" fill-opacity=".6" stroke="none"/><path d="m52830 8020h7000v6000h-7000z" fill="none" stroke="#850000" stroke-linecap="round" stroke-linejoin="round" stroke-width="100"/><path d="m52830 8020h7000v6000h-7000z" fill="#ffffc2" fill-opacity=".6" stroke="none"/><g stroke-linecap="round" stroke-linejoin="round"><g fill="#850000" fill-opacity="0" stroke="#850000" stroke-width="100"><path d="m52830 8020h7000v6000h-7000z"/><path d="m52830 8020h7000v6000h-7000z"/><path d="m52830 8020h7000v6000h-7000z"/></g><path d="m66000 32000v-1000" fill="none" stroke="#840000" stroke-width="60" transform="translate(-9670 -23980)"/><g fill="#008484" fill-opacity="0" stroke="#008484" stroke-width="60" transform="translate(-9670 -23980)"><text font-size="660" lengthAdjust="spacingAndGlyphs" opacity="0" text-anchor="end" textLength="1490" transform="matrix(0 -1 1 0 33800 98200)" x="66000" y="32450">VCC</text><path d="m65720 33610 500-170-500-170"/><path d="m66170 32820 30 20 20 80v40l-20 70-50 50-50 30-90 20h-70l-100-20-50-30-40-50-30-70v-40l30-80 20-20"/><path d="m66170 32320 30 20 20 80v40l-20 70-50 50-50 30-90 20h-70l-100-20-50-30-40-50-30-70v-40l30-80 20-20"/></g><g fill="#840000" fill-opacity="0" stroke="#840000" stroke-width="60" transform="translate(-9670 -23980)"><text font-size="660" lengthAdjust="spacingAndGlyphs" opacity="0" text-anchor="middle" textLength="1010" transform="matrix(0 -1 1 0 34400 97400)" x="65900" y="31500">14</text><path d="m65870 31590v290"/><path d="m65870 31730h-500l70 50 50 50 20 50"/><path d="m65540 31160h330"/><path d="m65350 31280 350 120v-310"/><path d="m66000 38000v1000"/></g><g fill="#008484" fill-opacity="0" stroke="#008484" stroke-width="60" transform="translate(-9670 -23980)"><text font-size="660" lengthAdjust="spacingAndGlyphs" opacity="0" textLength="1580" transform="matrix(0 -1 1 0 28200 103800)" x="66000" y="38050">GND</text><path d="m65750 37380-30 50v70l30 70 40 50 50 30 100 20h70l90-20 50-30 50-50 20-70v-40l-20-80-30-20h-160v100"/><path d="m66220 37150h-500l500-290h-500"/><path d="m66220 36620h-500v-120l30-70 40-50 50-20 100-20h70l90 20 50 20 50 50 20 70z"/></g><g fill="#840000" fill-opacity="0" stroke="#840000" stroke-width="60" transform="translate(-9670 -23980)"><text font-size="660" lengthAdjust="spacingAndGlyphs" opacity="0" text-anchor="middle" textLength="540" transform="matrix(0 -1 1 0 27400 104400)" x="65900" y="38500">7</text><path d="m65370 38660v-330l500 210"/><circle cx="62250" cy="37000" r="250"/><path d="m62000 37000h-1000"/></g><g fill="#008484" fill-opacity="0" stroke="#008484" stroke-width="60" transform="translate(-9670 -23980)"><text font-size="660" lengthAdjust="spacingAndGlyphs" opacity="0" textLength="560" x="62700" y="37250">R</text><path d="m63130 37220-170-240"/><path d="m62840 37220v-500h190l50 30 30 20 20 50v70l-20 50-30 20-50 20h-190"/></g><g fill="#840000" fill-opacity="0" stroke="#840000" stroke-width="60" transform="translate(-9670 -23980)"><text font-size="660" lengthAdjust="spacingAndGlyphs" opacity="0" text-anchor="middle" textLength="1010" x="61750" y="36900">10</text><path d="m61650 36870h-290"/><path d="m61510 36870v-500l-50 70-50 50-50 20"/><path d="m61960 36370h50l40 30 30 20 20 50 30 90v120l-30 100-20 40-30 30-40 20h-50l-50-20-20-30-30-40-20-100v-120l20-90 30-50 20-20z"/><path d="m62500 35000h-1500"/></g><g fill="#008484" fill-opacity="0" stroke="#008484" stroke-width="60" transform="translate(-9670 -23980)"><text font-size="660" lengthAdjust="spacingAndGlyphs" opacity="0" textLength="990" x="62700" y="35250">CV</text><path d="m63130 35170-20 30-80 20h-40l-70-20-50-50-30-50-20-90v-70l20-100 30-50 50-40 70-30h40l80 30 20 20"/><path d="m63270 34720 170 500 170-500"/></g><g fill="#840000" fill-opacity="0" stroke="#840000" stroke-width="60" transform="translate(-9670 -23980)"><text font-size="660" lengthAdjust="spacingAndGlyphs" opacity="0" text-anchor="middle" textLength="1010" x="61750" y="34900">11</text><path d="m61650 34870h-290"/><path d="m61510 34870v-500l-50 70-50 50-50 20"/><path d="m62130 34870h-290"/><path d="m61980 34870v-500l-40 70-50 50-50 20"/><path d="m69500 37000h1500"/></g><g fill="#008484" fill-opacity="0" stroke="#008484" stroke-width="60" transform="translate(-9670 -23980)"><text font-size="660" lengthAdjust="spacingAndGlyphs" opacity="0" text-anchor="end" textLength="1460" x="69300" y="37250">THR</text><path d="m67910 36720h280"/><path d="m68050 37220v-500"/><path d="m68360 37220v-500"/><path d="m68360 36960h290"/><path d="m68650 37220v-500"/><path d="m69170 37220-170-240"/><path d="m68880 37220v-500h190l50 30 30 20 20 50v70l-20 50-30 20-50 20h-190"/></g><g fill="#840000" fill-opacity="0" stroke="#840000" stroke-width="60" transform="translate(-9670 -23980)"><text font-size="660" lengthAdjust="spacingAndGlyphs" opacity="0" text-anchor="middle" textLength="1010" x="70250" y="36900">12</text><path d="m70150 36870h-290"/><path d="m70010 36870v-500l-50 70-50 50-50 20"/><path d="m70340 36420 20-20 50-30h120l50 30 20 20 30 50v40l-30 80-280 280h310"/><path d="m69500 35000h1500"/></g><g fill="#008484" fill-opacity="0" stroke="#008484" stroke-width="60" transform="translate(-9670 -23980)"><text font-size="660" lengthAdjust="spacingAndGlyphs" opacity="0" text-anchor="end" textLength="1270" x="69300" y="35250">DIS</text><path d="m68170 35220v-500h120l70 30 50 40 20 50 30 100v70l-30 90-20 50-50 50-70 20z"/><path d="m68670 35220v-500"/><path d="m68880 35200 80 20h110l50-20 30-30 20-40v-50l-20-50-30-20-50-30-90-20-50-20-20-30-30-50v-40l30-50 20-20 50-30h120l70 30"/></g><g fill="#840000" fill-opacity="0" stroke="#840000" stroke-width="60" transform="translate(-9670 -23980)"><text font-size="660" lengthAdjust="spacingAndGlyphs" opacity="0" text-anchor="middle" textLength="1010" x="70250" y="34900">13</text><path d="m70150 34870h-290"/><path d="m70010 34870v-500l-50 70-50 50-50 20"/><path d="m70320 34370h310l-170 190h70l50 30 20 20 30 50v120l-30 40-20 30-50 20h-140l-50-20-20-30"/><path d="m62500 33000h-1500"/></g><g fill="#008484" fill-opacity="0" stroke="#008484" stroke-width="60" transform="translate(-9670 -23980)"><text font-size="660" lengthAdjust="spacingAndGlyphs" opacity="0" textLength="940" x="62700" y="33250">TR</text><path d="m62770 32720h290"/><path d="m62920 33220v-500"/><path d="m63510 33220-170-240"/><path d="m63230 33220v-500h190l40 30 30 20 20 50v70l-20 50-30 20-40 20h-190"/></g><g fill="#840000" fill-opacity="0" stroke="#840000" stroke-width="60" transform="translate(-9670 -23980)"><text font-size="660" lengthAdjust="spacingAndGlyphs" opacity="0" text-anchor="middle" textLength="540" x="61750" y="32900">8</text><path d="m61700 32590-50-30-20-20-30-50v-20l30-50 20-20 50-30h90l50 30 20 20 30 50v20l-30 50-20 20-50 30h-90l-50 20-20 20-30 50v100l30 40 20 30 50 20h90l50-20 20-30 30-40v-100l-30-50-20-20-50-20"/><path d="m69500 33000h1500"/></g><g fill="#008484" fill-opacity="0" stroke="#008484" stroke-width="60" transform="translate(-9670 -23980)"><text font-size="660" lengthAdjust="spacingAndGlyphs" opacity="0" text-anchor="end" textLength="580" x="69300" y="33250">Q</text><path d="m69190 33270-40-20-50-50-70-70-50-30h-50"/><path d="m68960 33220-50-20-50-50-20-100v-160l20-100 50-40 50-30h90l50 30 50 40 20 100v160l-20 100-50 50-50 20z"/></g><g fill="#840000" fill-opacity="0" stroke="#840000" stroke-width="60" transform="translate(-9670 -23980)"><text font-size="660" lengthAdjust="spacingAndGlyphs" opacity="0" text-anchor="middle" textLength="540" x="70250" y="32900">9</text><path d="m70150 32870h100l40-20 30-30 40-70 30-90v-190l-30-50-20-20-50-30h-90l-50 30-20 20-30 50v120l30 40 20 30 50 20h90l50-20 20-30 30-40"/></g><g fill="#008484" fill-opacity="0" stroke="#008484" stroke-width="60" transform="translate(-9670 -23980)"><text font-size="660" lengthAdjust="spacingAndGlyphs" opacity="0" text-anchor="middle" textLength="2510" x="66000" y="29460">U101B</text><path d="m64890 28930v410l20 40 30 30 40 20h100l50-20 20-30 20-40v-410"/><path d="m65670 29430h-280"/><path d="m65530 29430v-500l-50 70-40 50-50 20"/><path d="m65980 28930h50l50 30 20 20 30 50 20 90v120l-20 100-30 40-20 30-50 20h-50l-40-20-30-30-20-40-30-100v-120l30-90 20-50 30-20z"/><path d="m66630 29430h-290"/><path d="m66480 29430v-500l-40 70-50 50-50 20"/><path d="m67010 29170 70 20 20 30 30 40v80l-30 40-20 30-50 20h-190v-500h170l40 30 30 20 20 50v40l-20 50-30 30-40 20h-170"/><text font-size="660" lengthAdjust="spacingAndGlyphs" opacity="0" text-anchor="middle" textLength="2460" x="66000" y="30370">LM556</text><path d="m65150 30340h-240v-500"/><path d="m65320 30340v-500l160 360 170-360v500"/><path d="m66130 29840h-240l-30 240 30-20 50-30h110l50 30 30 20 20 50v120l-20 40-30 30-50 20h-110l-50-20-30-30"/><path d="m66600 29840h-240l-20 240 20-20 50-30h120l50 30 20 20 30 50v120l-30 40-20 30-50 20h-120l-50-20-20-30"/><path d="m67050 29840h-90l-50 30-20 20-50 70-20 100v190l20 40 20 30 50 20h100l40-20 30-30 20-40v-120l-20-50-30-20-40-30h-100l-50 30-20 20-20 50"/></g></g></g><g fill="#008484" fill-opacity="0" stroke="#008484" stroke-width="0" transform="translate(-9670 -23980)"><g fill="#850000" stroke="#850000" stroke-width="100"><path d="m92500 29000h1400v2000h-1400z"/><path d="m93900 29000 1000-1000v4000l-1000-1000" fill="none" stroke="#850000" stroke-linecap="round" stroke-linejoin="round" stroke-width="100"/></g><g stroke-width="60"><g fill="#840000" stroke="#840000"><path d="m92500 29500h-1000"/><text font-size="660" lengthAdjust="spacingAndGlyphs" opacity="0" text-anchor="middle" textLength="540" x="92000" y="30100">1</text><path d="m92140 30070h-290"/><path d="m92000 30070v-500l-50 70-50 50-50 20"/><path d="m92500 30500h-1000"/><text font-size="660" lengthAdjust="spacingAndGlyphs" opacity="0" text-anchor="middle" textLength="540" x="92000" y="31100">2</text><path d="m91850 30620 30-20 40-30h120l50 30 20 20 30 50v40l-30 80-280 280h310"/></g><g fill="#008484" stroke="#008484"><text font-size="660" lengthAdjust="spacingAndGlyphs" opacity="0" text-anchor="middle" textLength="2370" x="96380" y="29810">LS101</text><path d="m95580 29780h-240v-500"/><path d="m95720 29760 70 20h120l50-20 20-30 30-40v-50l-30-50-20-20-50-30-90-20-50-20-30-30-20-50v-40l20-50 30-20 50-30h110l80 30"/><path d="m96480 29780h-280"/><path d="m96340 29780v-500l-50 70-50 50-40 20"/><path d="m96790 29280h50l50 30 20 20 20 50 30 90v120l-30 100-20 40-20 30-50 20h-50l-50-20-20-30-20-40-30-100v-120l30-90 20-50 20-20z"/><path d="m97430 29780h-280"/><path d="m97290 29780v-500l-50 70-40 50-50 20"/><text font-size="660" lengthAdjust="spacingAndGlyphs" opacity="0" text-anchor="middle" textLength="3010" x="96700" y="30720">Speaker</text><path d="m95310 30670 80 20h110l50-20 30-30 20-40v-50l-20-50-30-20-50-30-90-20-50-20-20-30-30-50v-40l30-50 20-20 50-30h120l70 30"/><path d="m95810 30360v500"/><path d="m95810 30380 50-20h100l40 20 30 30 20 40v150l-20 40-30 30-40 20h-100l-50-20"/><path d="m96460 30670-50 20h-100l-40-20-30-50v-190l30-50 40-20h100l50 20 20 50v50l-240 40"/><path d="m96910 30690v-260l-20-50-50-20h-100l-40 20"/><path d="m96910 30670-50 20h-120l-40-20-30-50v-50l30-50 40-20h120l50-20"/><path d="m97150 30690v-500"/><path d="m97200 30500 140 190"/><path d="m97340 30360-190 190"/><path d="m97740 30670-40 20h-100l-50-20-20-50v-190l20-50 50-20h100l40 20 30 50v50l-240 40"/><path d="m97980 30690v-330"/><path d="m97980 30450 20-40 30-30 50-20h40"/></g></g></g><g fill="#008484" fill-opacity="0" stroke="#008484" stroke-width="0" transform="translate(-9670 -23980)"><path d="m76400 39700h1200" fill="none" stroke="#850000" stroke-width="130"/><path d="m76400 39300h1200" fill="none" stroke="#850000" stroke-width="120"/><g fill-opacity="0" stroke-width="60"><g fill="#840000" stroke="#840000"><path d="m77000 39300v-800"/><path d="m77000 39700v800"/></g><g fill="#008484" stroke="#008484"><text font-size="660" lengthAdjust="spacingAndGlyphs" opacity="0" text-anchor="middle" textLength="1990" x="78910" y="39310">C102</text><path d="m78350 39230-30 30-70 20h-50l-70-20-50-50-20-50-20-90v-70l20-100 20-50 50-40 70-30h50l70 30 30 20"/><path d="m78820 39280h-280"/><path d="m78680 39280v-500l-50 70-50 50-40 20"/><path d="m79130 38780h50l50 30 20 20 20 50 30 90v120l-30 100-20 40-20 30-50 20h-50l-50-20-20-30-20-40-30-100v-120l30-90 20-50 20-20z"/><path d="m79490 38830 20-20 50-30h120l50 30 20 20 20 50v40l-20 80-290 280h310"/><text font-size="660" lengthAdjust="spacingAndGlyphs" opacity="0" text-anchor="middle" textLength="1660" x="78750" y="40220">.1uF</text><path d="m78070 40140 20 30-20 20-30-20 30-30v50"/><path d="m78570 40190h-290"/><path d="m78420 40190v-500l-40 70-50 50-50 20"/><path d="m79000 39860v330"/><path d="m78780 39860v260l20 50 50 20h70l50-20 30-30"/><path d="m79400 39930h-170"/><path d="m79230 40190v-500h240"/></g></g></g><g fill="#008484" fill-opacity="0" stroke="#008484" stroke-width="0" transform="translate(-9670 -23980)"><path d="m30900 39700h1200" fill="none" stroke="#850000" stroke-width="130"/><path d="m30900 39300h1200" fill="none" stroke="#850000" stroke-width="120"/><g fill-opacity="0" stroke-width="60"><g fill="#840000" stroke="#840000"><path d="m31500 39300v-800"/><path d="m31500 39700v800"/></g><g fill="#008484" stroke="#008484"><text font-size="660" lengthAdjust="spacingAndGlyphs" opacity="0" text-anchor="middle" textLength="1990" x="33410" y="39310">C101</text><path d="m32850 39230-30 30-70 20h-50l-70-20-50-50-20-50-20-90v-70l20-100 20-50 50-40 70-30h50l70 30 30 20"/><path d="m33320 39280h-280"/><path d="m33180 39280v-500l-50 70-50 50-40 20"/><path d="m33630 38780h50l50 30 20 20 20 50 30 90v120l-30 100-20 40-20 30-50 20h-50l-50-20-20-30-20-40-30-100v-120l30-90 20-50 20-20z"/><path d="m34270 39280h-280"/><path d="m34130 39280v-500l-50 70-40 50-50 20"/><text font-size="660" lengthAdjust="spacingAndGlyphs" opacity="0" text-anchor="middle" textLength="2130" x="33480" y="40220">.01uF</text><path d="m32560 40140 20 30-20 20-30-20 30-30v50"/><path d="m32890 39690h50l50 30 20 20 20 50 30 90v120l-30 100-20 40-20 30-50 20h-50l-50-20-20-30-20-40-30-100v-120l30-90 20-50 20-20z"/><path d="m33530 40190h-280"/><path d="m33390 40190v-500l-50 70-40 50-50 20"/><path d="m33960 39860v330"/><path d="m33750 39860v260l20 50 50 20h70l50-20 20-30"/><path d="m34370 39930h-170"/><path d="m34200 40190v-500h240"/></g></g></g><g fill="#008484" fill-opacity="0" stroke="#008484" stroke-width="60" transform="translate(-9670 -23980)"><g fill="none" stroke="#850000"><path d="m50500 37400v100"/><path d="m50500 35600v-100"/><path d="m50500 36800 400 150-400 150-400 150 400 150"/><path d="m50500 36200 400 150-400 150-400 150 400 150"/><path d="m50500 35600 400 150-400 150-400 150 400 150"/></g><g fill="#840000" stroke="#840000"><path d="m50500 35500v-500"/><path d="m50500 37500v500"/></g><g fill="#008484" stroke="#008484"><text font-size="660" lengthAdjust="spacingAndGlyphs" opacity="0" text-anchor="middle" textLength="1990" x="52170" y="36310">R102</text><path d="m51610 36280-170-240"/><path d="m51320 36280v-500h190l50 30 20 20 30 50v70l-30 50-20 20-50 20h-190"/><path d="m52080 36280h-280"/><path d="m51940 36280v-500l-50 70-50 50-40 20"/><path d="m52390 35780h50l50 30 20 20 20 50 30 90v120l-30 100-20 40-20 30-50 20h-50l-50-20-20-30-20-40-30-100v-120l30-90 20-50 20-20z"/><path d="m52750 35830 20-20 50-30h120l50 30 20 20 20 50v40l-20 80-290 280h310"/><text font-size="660" lengthAdjust="spacingAndGlyphs" opacity="0" text-anchor="middle" textLength="940" x="51650" y="37220">1k</text><path d="m51590 37190h-290"/><path d="m51440 37190v-500l-40 70-50 50-50 20"/><path d="m51800 37190v-500"/><path d="m51850 37000 140 190"/><path d="m51990 36860-190 190"/></g></g><g fill="#008400" stroke="#008400"><g fill-opacity="0" stroke-width="60" transform="translate(-9670 -23980)"><path d="m50500 29500v1000"/><path d="m50500 35000h-4000"/><path d="m86500 30500v1000"/><path d="m90500 30500h-4000"/><path d="m46500 37000h500"/><path d="m46500 25500h14000"/><path d="m60500 33000h500"/><path d="m71000 35000h500"/><path d="m71500 35000v2000"/><path d="m71500 37000h-500"/><path d="m48500 29500h2000"/><path d="m31500 40500v9500"/><path d="m31500 38500v-5500"/><path d="m36500 37000h-1500"/><path d="m35000 37000v-10000"/><path d="m88000 33000h2500"/><path d="m35000 27000h6500"/><path d="m83500 33000h1500"/><path d="m31500 26000v1000"/><path d="m48500 32000v-2500"/><path d="m77000 40500v9500"/><path d="m71500 37000h5500"/><path d="m77000 37000v1500"/><path d="m31500 27000h3500"/><path d="m66000 27000h11000"/><path d="m77000 32500v4500"/><path d="m77000 28500h-2000"/><path d="m49000 32000h-500"/><path d="m77000 27000h13500"/><path d="m90500 27000v2500"/><path d="m90500 29500h1000"/><path d="m77000 27000v1500"/><path d="m91500 30500h-1000"/><path d="m90500 30500v2500"/><path d="m80500 33000h-9500"/><path d="m77000 28500v1000"/><path d="m58000 37000v-10000"/><path d="m31500 50000h10000"/><path d="m75000 31000v-2500"/><path d="m66000 39000v11000"/><path d="m41500 27000v4000"/><path d="m50500 33500v1500"/><path d="m61000 37000h-3000"/><path d="m50500 27000h7500"/><path d="m50500 27000v2500"/><path d="m75500 31000h-500"/><path d="m24000 37500v2000"/><path d="m10500 50000h13500"/><path d="m24000 42500v7500"/><path d="m20500 27000h3500"/><path d="m60500 33000v-7500"/><path d="m16500 28000h-6000"/><path d="m66000 27000v4000"/><path d="m10500 28000v12500"/><path d="m10500 44500v5500"/><path d="m24000 27000v7500"/><path d="m46500 33000v-7500"/><path d="m58000 27000h8000"/><path d="m24000 27000h7500"/><path d="m47000 37000v3500"/><path d="m24000 50000h7500"/><path d="m47000 40500h-13000"/><path d="m66000 50000h11000"/><path d="m41500 39000v11000"/><path d="m41500 27000h9000"/><path d="m34000 33000v7500"/><path d="m41500 50000h24500"/><path d="m50500 38000v2500"/><path d="m50500 40500h-3500"/><path d="m36500 33000h-2500"/><path d="m34000 33000h-2500"/></g><circle cx="24330" cy="9020" r="200" stroke-width="100"/><circle cx="37330" cy="16520" r="200" stroke-width="100"/><circle cx="21830" cy="26020" r="200" stroke-width="100"/><circle cx="21830" cy="3020" r="200" stroke-width="100"/><circle cx="14330" cy="3020" r="200" stroke-width="100"/><circle cx="48330" cy="3020" r="200" stroke-width="100"/><circle cx="56330" cy="3020" r="200" stroke-width="100"/><circle cx="14330" cy="26020" r="200" stroke-width="100"/><circle cx="80830" cy="6520" r="200" stroke-width="100"/><circle cx="31830" cy="3020" r="200" stroke-width="100"/><circle cx="56330" cy="26020" r="200" stroke-width="100"/><circle cx="31830" cy="26020" r="200" stroke-width="100"/><circle cx="67330" cy="3020" r="200" stroke-width="100"/><circle cx="67330" cy="4520" r="200" stroke-width="100"/><circle cx="67330" cy="13020" r="200" stroke-width="100"/><circle cx="61830" cy="13020" r="200" stroke-width="100"/><circle cx="40830" cy="3020" r="200" stroke-width="100"/><circle cx="25330" cy="3020" r="200" stroke-width="100"/><circle cx="40830" cy="11020" r="200" stroke-width="100"/><circle cx="40830" cy="5520" r="200" stroke-width="100"/></g><g fill="#000084" fill-opacity="0" stroke="#000084" stroke-width="60" transform="translate(-9670 -23980)"><path d="m41260 40260 480 480"/><path d="m41740 40260-480 480"/><path d="m60760 34760 480 480"/><path d="m61240 34760-480 480"/><path d="m36260 34760 480 480"/><path d="m36740 34760-480 480"/><path d="m60260 26760 480 480"/><path d="m60740 26760-480 480"/><path d="m46260 26760 480 480"/><path d="m46740 26760-480 480"/><path d="m76760 32760 480 480"/><path d="m77240 32760-480 480"/><path d="m34760 32760 480 480"/><path d="m35240 32760-480 480"/><path d="m20260 28760 480 480"/><path d="m20740 28760-480 480"/></g></g></svg>